TexturaLibera-Cond.sfdir
StartChar: exclam
Encoding: 33 33 1
Width: 240
Flags: W
VStem: 66 108<251.952 534.974> 74 92<225 428.518>
LayerCount: 2
Back
SplineSet
100 40 m 25
 140 0 l 1049
100 560 m 5
 100 560 111 524 112 500 c 24
 118 383 120 200 120 200 c 1
 120 200 122 383 128 500 c 24
 130 539 140 600 140 600 c 9
 100 560 l 5
EndSplineSet
Fore
SplineSet
54 535 m 1x80
 165 646 l 1
 186 625 l 1
 186 625 176 564 174 525 c 0x80
 168 408 166 225 166 225 c 1
 95 154 l 1
 74 175 l 1x40
 74 175 72 358 66 475 c 0
 65 499 54 535 54 535 c 1x80
54 15 m 1
 125 86 l 1
 186 25 l 1
 115 -46 l 1
 54 15 l 1
EndSplineSet
EndChar
StartChar: quotedbl
Encoding: 34 34 2
Width: 400
Flags: W
HStem: 414 232
VStem: 34 312
LayerCount: 2
Back
SplineSet
260 600 m 25
 300 560 l 1
 300 520 l 25
 240 460 l 1049
100 600 m 25
 140 560 l 1
 140 520 l 25
 80 460 l 1049
EndSplineSet
Fore
SplineSet
54 575 m 1
 125 646 l 1
 186 585 l 1
 186 545 l 1
 55 414 l 1
 34 435 l 1
 94 495 l 1
 94 535 l 1
 54 575 l 1
214 575 m 1
 285 646 l 1
 346 585 l 1
 346 545 l 1
 215 414 l 1
 194 435 l 1
 254 495 l 1
 254 535 l 1
 214 575 l 1
EndSplineSet
EndChar
StartChar: numbersign
Encoding: 35 35 3
Width: 560
Flags: W
HStem: -196 21G<-5 35 155 195> 154 92<65 118 226 278 386 495> 354 92<65 193 301 353 461 495>
LayerCount: 2
Back
SplineSet
200 -150 m 25
 520 700 l 1049
40 -150 m 25
 360 700 l 1049
40 200 m 25
 520 200 l 1049
40 400 m 25
 520 400 l 1049
EndSplineSet
Fore
SplineSet
-6 375 m 1
 65 446 l 1
 228 446 l 1
 314 675 l 1
 385 746 l 1
 406 725 l 1
 301 446 l 1
 388 446 l 1
 474 675 l 1
 545 746 l 1
 566 725 l 1
 461 446 l 1
 545 446 l 1
 566 425 l 1
 495 354 l 1
 426 354 l 1
 386 246 l 1
 545 246 l 1
 566 225 l 1
 495 154 l 1
 351 154 l 1
 246 -125 l 1
 175 -196 l 1
 154 -175 l 1
 278 154 l 1
 191 154 l 1
 86 -125 l 1
 15 -196 l 1
 -6 -175 l 1
 118 154 l 1
 15 154 l 1
 -6 175 l 1
 65 246 l 1
 152 246 l 1
 193 354 l 1
 15 354 l 1
 -6 375 l 1
226 246 m 1
 312 246 l 1
 353 354 l 1
 266 354 l 1
 226 246 l 1
EndSplineSet
EndChar
StartChar: dollar
Encoding: 36 36 4
Width: 480
Flags: W
HStem: -196 21G<195 235> 4 92<73 192.522> 504 92<287.478 407>
VStem: 34 92<381 495> 194 92<-125 -43 89 236 364 511 643 675> 354 92<105 219>
CounterMasks: 1 1c
LayerCount: 2
Back
SplineSet
240 700 m 25
 240 -150 l 1049
440 600 m 17
 440 600 410 550 380 550 c 24
 292 550 160 600 160 600 c 9
 80 520 l 1
 80 340 l 1
 400 260 l 1
 400 80 l 1
 320 0 l 17
 320 0 188 50 100 50 c 24
 70 50 40 0 40 0 c 1025
EndSplineSet
Fore
SplineSet
465 646 m 1
 486 625 l 1
 486 625 476 609 462 595 c 2
 392 524 l 2
 391 523 l 0
 380 512 368 504 355 504 c 0
 334 504 310 507 286 511 c 1
 286 341 l 1
 425 306 l 1
 446 285 l 1
 446 105 l 1
 295 -46 l 1
 295 -46 292 -45 286 -43 c 1
 286 -125 l 1
 215 -196 l 1
 194 -175 l 1
 194 -14 l 1
 155 -4 111 4 75 4 c 0
 71 4 66 3 62 1 c 2
 15 -46 l 1
 -6 -25 l 1
 -6 -25 4 -9 18 5 c 2
 88 76 l 2
 99 87 112 96 125 96 c 0
 146 96 170 93 194 89 c 1
 194 259 l 1
 55 294 l 1
 34 315 l 1
 34 495 l 1
 185 646 l 1
 185 646 188 645 194 643 c 1
 194 675 l 1
 265 746 l 1
 286 725 l 1
 286 614 l 1
 325 604 369 596 405 596 c 0
 409 596 413 597 418 599 c 2
 465 646 l 1
194 534 m 1
 159 544 135 554 135 554 c 1
 135 554 128 547 126 545 c 2
 126 381 l 1
 194 364 l 1
 194 534 l 1
286 66 m 1
 321 56 345 46 345 46 c 2
 354 55 l 1
 354 219 l 1
 286 236 l 1
 286 66 l 1
EndSplineSet
EndChar
StartChar: percent
Encoding: 37 37 5
Width: 560
Flags: W
HStem: -196 21G<-5 35 355 395>
VStem: 34 92<420.689 595> 194 92<455 629.311> 274 92<-79.3108 95> 434 92<-45 129.311>
LayerCount: 2
Back
SplineSet
400 200 m 25
 320 120 l 25
 320 -70 l 25
 400 -150 l 25
 480 -70 l 25
 480 120 l 25
 400 200 l 25
40 -150 m 25
 520 700 l 1049
160 700 m 25
 80 620 l 25
 80 430 l 25
 160 350 l 25
 240 430 l 25
 240 620 l 25
 160 700 l 25
EndSplineSet
Fore
SplineSet
135 654 m 1xe8
 126 645 l 1
 126 455 l 2
 126 423 168 413 185 396 c 1
 194 405 l 1
 194 595 l 2
 194 627 152 637 135 654 c 1xe8
34 595 m 1
 185 746 l 1
 286 645 l 1
 286 455 l 1
 135 304 l 1
 34 405 l 1
 34 595 l 1
15 -196 m 1
 -6 -175 l 1
 474 675 l 1
 545 746 l 1
 566 725 l 1
 86 -125 l 1
 15 -196 l 1
375 154 m 1
 366 145 l 1
 366 -45 l 2xd8
 366 -77 408 -87 425 -104 c 1
 434 -95 l 1
 434 95 l 2
 434 127 392 137 375 154 c 1
274 95 m 1
 425 246 l 1
 526 145 l 1
 526 -45 l 1
 375 -196 l 1
 274 -95 l 1
 274 95 l 1
EndSplineSet
EndChar
StartChar: quotesingle
Encoding: 39 39 7
Width: 240
Flags: W
HStem: 414 232
VStem: 34 152
LayerCount: 2
Back
SplineSet
100 600 m 25
 140 560 l 5
 140 520 l 29
 80 460 l 1053
EndSplineSet
Fore
SplineSet
54 575 m 1
 125 646 l 1
 186 585 l 1
 186 545 l 1
 55 414 l 1
 34 435 l 1
 94 495 l 1
 94 535 l 1
 54 575 l 1
EndSplineSet
EndChar
StartChar: parenleft
Encoding: 40 40 8
Width: 200
Flags: W
HStem: -196 21G<115 155>
VStem: -6 92<98.21 451.79>
LayerCount: 2
Back
SplineSet
160 700 m 21
 160 700 40 575 40 275 c 4
 40 -25 160 -150 160 -150 c 1037
EndSplineSet
Fore
SplineSet
185 746 m 1
 206 725 l 1
 206 725 86 600 86 300 c 0
 86 0 206 -125 206 -125 c 1
 135 -196 l 1
 114 -175 l 1
 114 -175 -6 -50 -6 250 c 0
 -6 550 114 675 114 675 c 1
 185 746 l 1
EndSplineSet
EndChar
StartChar: parenright
Encoding: 41 41 9
Width: 200
Flags: W
HStem: -196 21G<-5 35>
VStem: 114 92<98.21 451.79>
LayerCount: 2
Back
SplineSet
40 700 m 17
 40 700 160 575 160 275 c 0
 160 -25 40 -150 40 -150 c 1033
EndSplineSet
Fore
SplineSet
65 746 m 1
 86 725 l 1
 86 725 206 600 206 300 c 0
 206 0 86 -125 86 -125 c 1
 15 -196 l 1
 -6 -175 l 1
 -6 -175 114 -50 114 250 c 0
 114 550 -6 675 -6 675 c 1
 65 746 l 1
EndSplineSet
EndChar
StartChar: asterisk
Encoding: 42 42 10
Width: 400
Flags: W
HStem: 526 20G<85 136.613 313.065 365>
VStem: 154 92<275 335 515 575>
LayerCount: 2
Back
SplineSet
80 350 m 25
 320 500 l 1049
200 600 m 25
 200 250 l 1049
80 500 m 25
 320 350 l 1049
EndSplineSet
Fore
SplineSet
34 475 m 1
 105 546 l 1
 154 515 l 1
 154 575 l 1
 225 646 l 1
 246 625 l 1
 246 484 l 1
 345 546 l 1
 366 525 l 1
 295 454 l 1
 274 440 l 1
 345 396 l 1
 366 375 l 1
 295 304 l 1
 246 335 l 1
 246 275 l 1
 175 204 l 1
 154 225 l 1
 154 366 l 1
 55 304 l 1
 34 325 l 1
 105 396 l 1
 126 410 l 1
 55 454 l 1
 34 475 l 1
EndSplineSet
EndChar
StartChar: hyphen
Encoding: 45 45 13
Width: 240
Flags: W
HStem: 154 117
VStem: 34 172
LayerCount: 2
Back
SplineSet
80 200 m 29
 160 225 l 1053
EndSplineSet
Fore
SplineSet
34 175 m 1
 105 246 l 1
 185 271 l 1
 206 250 l 1
 135 179 l 1
 55 154 l 1
 34 175 l 1
EndSplineSet
EndChar
StartChar: zero
Encoding: 48 48 16
Width: 320
Flags: W
HStem: 426 20G<165 225> 426 20G<165 225>
VStem: 34 92<75 295> 194 92<105 325>
LayerCount: 2
Back
SplineSet
160 400 m 1
 80 320 l 1
 80 40 l 25
 160 0 l 1
 240 80 l 1
 240 360 l 25
 160 400 l 1
EndSplineSet
Fore
SplineSet
135 354 m 1x30
 126 345 l 1
 126 75 l 1
 185 46 l 2
 185 46 192 53 194 55 c 2
 194 325 l 1
 135 354 l 1x30
34 295 m 1
 185 446 l 1xb0
 265 406 l 1
 286 385 l 1
 286 105 l 1
 135 -46 l 1
 55 -6 l 1
 34 15 l 1
 34 295 l 1
EndSplineSet
Substitution2: "Subscript forms-1" zero.inferior
Substitution2: "Superscript forms-1" zero.superior
EndChar
StartChar: eight
Encoding: 56 56 24
Width: 320
Flags: W
VStem: 34 92<70.6892 220 400 495> 194 92<105 250 430 529.311>
LayerCount: 2
Back
SplineSet
160 600 m 25
 80 520 l 25
 80 365 l 25
 160 325 l 25
 240 405 l 25
 240 520 l 25
 160 600 l 25
160 325 m 25
 80 245 l 25
 80 80 l 25
 160 0 l 25
 240 80 l 25
 240 285 l 25
 160 325 l 25
EndSplineSet
Fore
SplineSet
135 554 m 1
 126 545 l 1
 126 400 l 1
 185 371 l 2
 185 371 192 378 194 380 c 2
 194 495 l 2
 194 527 152 537 135 554 c 1
34 495 m 1
 185 646 l 1
 286 545 l 1
 286 430 l 1
 213 357 l 1
 265 331 l 1
 286 310 l 1
 286 105 l 1
 135 -46 l 1
 34 55 l 1
 34 220 l 1
 107 293 l 1
 55 319 l 1
 34 340 l 1
 34 495 l 1
135 279 m 1
 126 270 l 1
 126 105 l 2
 126 73 168 63 185 46 c 1
 194 55 l 1
 194 250 l 1
 135 279 l 1
EndSplineSet
Substitution2: "Subscript forms-1" eight.inferior
Substitution2: "Superscript forms-1" eight.superior
EndChar
StartChar: colon
Encoding: 58 58 26
Width: 240
Flags: W
VStem: 54 132
LayerCount: 2
Back
SplineSet
100 350 m 25
 140 310 l 1049
100 40 m 25
 140 0 l 1049
EndSplineSet
Fore
SplineSet
54 15 m 1
 125 86 l 1
 186 25 l 1
 115 -46 l 1
 54 15 l 1
54 325 m 1
 125 396 l 1
 186 335 l 1
 115 264 l 1
 54 325 l 1
EndSplineSet
EndChar
StartChar: semicolon
Encoding: 59 59 27
Width: 240
Flags: W
VStem: 34 152
LayerCount: 2
Back
SplineSet
100 40 m 25
 140 0 l 1
 140 -40 l 25
 80 -100 l 1049
100 350 m 25
 140 310 l 1049
EndSplineSet
Fore
SplineSet
54 325 m 1
 125 396 l 1
 186 335 l 1
 115 264 l 1
 54 325 l 1
54 15 m 1
 125 86 l 1
 186 25 l 1
 186 -15 l 1
 55 -146 l 1
 34 -125 l 1
 94 -65 l 1
 94 -25 l 1
 54 15 l 1
EndSplineSet
EndChar
StartChar: less
Encoding: 60 60 28
Width: 480
Flags: W
HStem: 526 20G<393 445>
LayerCount: 2
Back
SplineSet
400 500 m 25
 80 300 l 25
 400 100 l 1049
EndSplineSet
Fore
SplineSet
446 525 m 1
 375 454 l 1
 154 315 l 1
 425 146 l 1
 446 125 l 1
 375 54 l 1
 55 254 l 1
 34 275 l 1
 105 346 l 1
 425 546 l 1
 446 525 l 1
EndSplineSet
EndChar
StartChar: question
Encoding: 63 63 31
Width: 320
Flags: W
VStem: 34 92<475 515> 114 92<225 295> 194 92<425 515>
LayerCount: 2
Back
SplineSet
80 450 m 25
 80 540 l 25
 140 600 l 25
 240 550 l 25
 240 400 l 25
 160 320 l 25
 160 200 l 1049
140 40 m 25
 180 0 l 1049
EndSplineSet
Fore
SplineSet
94 15 m 1x00
 165 86 l 1
 226 25 l 1
 155 -46 l 1
 94 15 l 1x00
55 404 m 1
 34 425 l 1
 34 515 l 1
 165 646 l 1
 265 596 l 1
 286 575 l 1
 286 425 l 1xa0
 206 345 l 1
 206 225 l 1
 135 154 l 1
 114 175 l 1
 114 295 l 1x40
 194 375 l 1
 194 515 l 1
 126 549 l 1
 126 475 l 1xa0
 55 404 l 1
EndSplineSet
EndChar
StartChar: at
Encoding: 64 64 32
Width: 640
Flags: W
HStem: -196 92<254.762 391.846> 451 20G<325 365 405 445> 554 92<285.115 418.227>
VStem: 34 92<83.0074 347.658> 194 92<82.9004 320> 354 92<100 354> 514 92<246.722 429.113>
LayerCount: 2
Back
SplineSet
520 -50 m 1
 520 -50 440 -150 320 -150 c 11
 146 -150 80 51 80 225 c 27
 80 408 177 600 360 600 c 27
 493 600 560 458 560 325 c 27
 560 216 460 65 460 65 c 26
 420 25 l 1
 400 45 l 1
 400 425 l 1
 400 425 382 393 360 393 c 0
 338 393 320 425 320 425 c 9
 240 345 l 1
 240 85 l 17
 300 25 l 1
 400 125 l 1049
EndSplineSet
Fore
SplineSet
354 354 m 1
 348 350 342 347 335 347 c 0
 325 347 317 353 310 360 c 2
 293 377 l 1
 286 370 l 1
 286 110 l 2
 286 90 314 82 325 71 c 1
 354 100 l 1
 354 354 l 1
354 58 m 1
 275 -21 l 1
 194 60 l 1
 194 320 l 1
 345 471 l 1
 366 450 l 1
 366 450 368 447 370 443 c 0
 374 440 380 439 385 439 c 0
 389 439 391 439 395 441 c 2
 425 471 l 1
 446 450 l 1
 446 94 l 1
 475 147 514 232 514 300 c 0
 514 378 491 460 445 514 c 1
 416 539 378 554 335 554 c 0
 284 554 240 539 203 514 c 1
 152 442 126 345 126 250 c 0
 126 139 152 17 217 -57 c 1
 251 -86 294 -104 345 -104 c 0
 420 -104 479 -65 513 -36 c 2
 545 -4 l 1
 566 -25 l 1
 566 -25 561 -32 552 -41 c 2
 481 -112 l 1
 452 -141 384 -196 295 -196 c 0
 238 -196 192 -174 157 -139 c 2
 136 -118 l 2
 64 -46 34 83 34 200 c 0
 34 314 72 432 144 504 c 2
 215 575 l 2
 259 619 316 646 385 646 c 0
 434 646 474 627 505 596 c 2
 526 574 l 2
 579 521 606 434 606 350 c 0
 606 241 506 90 506 90 c 1
 395 -21 l 1
 354 20 l 1
 354 58 l 1
EndSplineSet
EndChar
StartChar: E
Encoding: 69 69 37
Width: 600
Flags: W
HStem: -46 92<256.754 363.467> 446 21G<195 225> 446 21G<195 225> 504 92<409 467.5> 554 92<333.5 396.5>
VStem: 54 92<183.695 394.761> 225 30<86 456 539 555> 294 92<125 276 370 475>
AnchorPoint: "blwmark" 320 0 basechar 0
AnchorPoint: "abvmark" 360 700 basechar 0
LayerCount: 2
Back
SplineSet
340 300 m 25
 340 300 378 350 400 350 c 27
 428 350 412 300 440 300 c 3
 473 300 500 350 501 350 c 1049
240 550 m 1
 240 100 l 1025
340 500 m 1
 340 100 l 1025
240 600 m 1
 240 600 100 480 100 300 c 3
 100 134 176 0 320 0 c 3
 415 0 521 150 522 150 c 1025
240 492 m 1
 240 492 316 600 364 600 c 3
 415 600 394 550 440 550 c 3
 478 550 500 600 501 600 c 1025
EndSplineSet
Fore
SplineSet
215 446 m 1xc7
 194 467 l 1xa7
 194 467 207 486 225 507 c 1
 225 555 l 1
 187 502 146 423 146 325 c 0
 146 231 171 147 218 92 c 0
 220 90 223 88 225 86 c 2
 225 456 l 1
 215 446 l 1xc7
286 625 m 1
 260 599 l 2
 258 597 257 595 255 593 c 2
 255 539 l 1
 320 604 l 2
 343 627 368 646 389 646 c 0x8f
 404 646 413 641 419 635 c 2
 440 614 l 2
 445 609 448 603 451 598 c 0
 455 597 459 596 465 596 c 0x97
 470 596 475 597 478 598 c 2
 526 646 l 2x8f
 547 625 l 2
 546 623 537 606 524 593 c 2
 454 522 l 2
 444 512 431 504 415 504 c 0x97
 403 504 395 508 390 513 c 2
 386 517 l 1
 386 370 l 1
 388 373 l 2
 400 385 414 396 425 396 c 0
 430 396 433 394 436 391 c 2
 458 370 l 2
 463 364 465 355 467 346 c 0
 471 346 475 348 478 349 c 2
 526 396 l 2
 547 375 l 2
 545 372 537 358 524 345 c 2
 523 344 l 2
 452 273 l 2
 442 263 429 254 415 254 c 0
 410 254 407 255 404 258 c 0
 404 259 l 2
 386 276 l 1
 386 125 l 1
 315 54 l 1
 294 75 l 1
 294 275 l 1
 294 475 l 1
 362 543 l 2
 360 546 359 548 357 551 c 0
 353 553 346 554 339 554 c 0
 328 554 316 549 304 540 c 1
 293 527 286 517 286 517 c 1
 255 486 l 1
 255 67 l 1
 281 54 311 46 345 46 c 0
 381 46 419 68 451 94 c 1
 466 111 475 124 476 125 c 2
 547 196 l 2
 568 175 l 1
 565 172 541 139 507 105 c 2
 437 34 l 2
 398 -5 345 -46 295 -46 c 0
 239 -46 193 -26 158 9 c 2
 158 10 l 1
 136 31 l 2
 82 85 54 174 54 275 c 0
 54 422 148 530 182 564 c 2
 253 634 l 2
 261 642 265 646 265 646 c 1x8f
 286 625 l 1
EndSplineSet
EndChar
StartChar: N
Encoding: 78 78 46
Width: 600
Flags: W
HStem: -46 21G<-5 35 175 215 435 475> 4 92<87.959 144.57> 504 21G<-5 35> 554 92<77.3594 138.281>
VStem: 145 30<96 531> 214 92<78 532> 394 92<46.2344 469>
AnchorPoint: "blwmark" 320 0 basechar 0
AnchorPoint: "abvmark" 320 700 basechar 0
LayerCount: 2
Back
SplineSet
40 550 m 1
 40 550 67 600 99 600 c 3
 128 600 142 575 160 575 c 3
 182 575 200 600 201 600 c 1025
160 550 m 1
 160 75 l 1025
40 0 m 17
 40 0 65 50 120 50 c 3
 198 50 220 0 220 0 c 1
 260 40 l 1
 260 560 l 1
 300 600 l 1
 440 500 l 1
 440 40 l 1
 480 0 l 9
 520 40 l 1049
EndSplineSet
Fore
SplineSet
15 -46 m 1
 -6 -25 l 1
 -6 -25 0 -13 12 -1 c 2
 82 69 l 2
 95 82 116 96 145 96 c 0
 145 531 l 2
 142 530 138 529 135 529 c 0
 117 529 103 554 74 554 c 0
 70 554 67 553 63 552 c 2
 15 504 l 1
 -6 525 l 1
 -6 525 4 543 18 557 c 2
 88 628 l 2
 98 638 111 646 124 646 c 0
 153 646 167 621 185 621 c 0
 196 621 206 628 213 634 c 2
 225 646 l 2
 226 646 l 2
 247 625 l 1
 245 623 l 2
 244 622 243 620 241 618 c 2
 240 617 l 2
 175 552 l 1
 175 93 l 1
 191 90 204 84 214 78 c 1
 214 535 l 1
 325 646 l 1
 465 546 l 1
 486 525 l 1
 486 65 l 2
 486 56 500 51 505 46 c 1
 545 86 l 1
 566 65 l 1
 455 -46 l 1
 394 15 l 1
 394 469 l 1
 306 532 l 1
 306 65 l 1
 195 -46 l 1
 174 -25 l 1
 174 -25 173 -21 170 -17 c 0
 155 -6 130 4 95 4 c 0
 79 4 66 0 55 -6 c 2
 15 -46 l 1
EndSplineSet
EndChar
StartChar: O
Encoding: 79 79 47
Width: 640
Flags: W
HStem: -46 92<256.754 361.528> 446 21G<195 225> 446 21G<195 225> 626 20G<253 285 372 401.5>
VStem: 54 92<183.695 394.761> 225 30<86 456 551 555> 294 92<125 525> 476 92<204.37 442.822>
AnchorPoint: "blwmark" 320 0 basechar 0
AnchorPoint: "abvmark" 360 700 basechar 0
LayerCount: 2
Back
SplineSet
240 550 m 5
 240 100 l 1029
342 550 m 5
 340 100 l 1029
240 600 m 5
 240 600 100 480 100 300 c 7
 100 134 176 0 320 0 c 7
 415 0 522 142 522 300 c 7
 522 512 449 600 360 600 c 7
 290 600 240 492 240 492 c 1029
EndSplineSet
Fore
SplineSet
286 625 m 1x9f
 260 599 l 2
 258 597 257 595 255 593 c 2
 255 551 l 1
 316 612 l 2
 335 631 359 646 385 646 c 0
 418 646 447 635 473 609 c 2
 495 587 l 2
 539 543 568 459 568 325 c 0
 568 226 525 133 470 77 c 2
 470 76 l 2
 399 6 l 2
 367 -26 330 -46 295 -46 c 0
 239 -46 193 -26 158 9 c 2
 158 10 l 1
 136 31 l 2
 82 85 54 174 54 275 c 0
 54 422 148 530 182 564 c 2
 253 634 l 2
 265 646 l 1
 286 625 l 1x9f
324 553 m 1
 316 552 308 549 302 546 c 0
 291 529 286 517 286 517 c 2
 255 486 l 1
 255 67 l 1
 281 54 311 46 345 46 c 0
 367 46 391 55 412 68 c 1
 450 123 476 197 476 275 c 0
 476 398 451 480 413 526 c 0
 405 533 397 538 388 542 c 1
 386 125 l 1
 315 54 l 1
 294 75 l 1
 296 525 l 1
 324 553 l 1
225 555 m 1
 187 502 146 423 146 325 c 0
 146 231 171 147 218 92 c 0
 220 90 223 88 225 86 c 2
 225 456 l 1
 215 446 l 1xdf
 194 467 l 2xbf
 194 467 205 492 225 518 c 1
 225 555 l 1
EndSplineSet
EndChar
StartChar: P
Encoding: 80 80 48
Width: 560
Flags: W
HStem: -46 21G<-5 35 175 215> 4 92<87.959 144.155> 504 21G<-5 35> 554 92<77.3594 138.281>
VStem: 145 30<96 204 247 531> 214 92<78 238 346 533> 434 92<355 444>
AnchorPoint: "blwmark" 320 0 basechar 0
AnchorPoint: "abvmark" 320 700 basechar 0
LayerCount: 2
Back
SplineSet
200 250 m 17
 200 250 243 300 280 300 c 27
 331 300 400 250 400 250 c 1
 480 330 l 1
 480 475 l 5
 300 600 l 5
 260 560 l 1
 260 40 l 1
 220 0 l 1
 220 0 198 50 120 50 c 3
 65 50 40 0 40 0 c 1033
40 550 m 1
 40 550 67 600 99 600 c 3
 128 600 142 575 160 575 c 3
 182 575 200 600 201 600 c 1025
160 550 m 1
 160 75 l 1025
EndSplineSet
Fore
SplineSet
15 504 m 1
 -6 525 l 1
 -6 525 4 543 18 557 c 2
 88 628 l 2
 98 638 111 646 124 646 c 0
 153 646 167 621 185 621 c 0
 196 621 206 628 213 634 c 2
 225 646 l 2
 226 646 l 2
 247 625 l 1
 245 623 l 2
 244 622 243 620 241 618 c 2
 240 617 l 2
 175 552 l 1
 175 247 l 1
 214 286 l 1
 214 535 l 1
 325 646 l 1
 505 521 l 1
 526 500 l 1
 526 355 l 1
 375 204 l 1
 375 204 343 227 306 242 c 1
 306 65 l 1
 195 -46 l 1
 174 -25 l 1
 174 -25 173 -21 170 -17 c 0
 154 -6 130 4 95 4 c 0
 79 4 65 -1 55 -6 c 2
 15 -46 l 1
 -6 -25 l 2
 -6 -25 -1 -14 11 -2 c 2
 12 -1 l 2
 82 69 l 2
 95 82 116 96 145 96 c 0
 145 531 l 2
 142 530 138 529 135 529 c 0
 117 529 103 554 74 554 c 0
 70 554 67 553 63 552 c 2
 15 504 l 1
306 346 m 1
 310 346 315 346 319 345 c 0
 368 338 425 296 425 296 c 2
 425 296 432 303 434 305 c 2
 434 444 l 1
 306 533 l 1
 306 346 l 1
175 204 m 1
 175 93 l 1
 191 90 204 84 214 78 c 1
 214 238 l 1
 206 233 201 229 194 223 c 2
 175 204 l 1
EndSplineSet
EndChar
StartChar: R
Encoding: 82 82 50
Width: 560
Flags: W
HStem: -46 21G<-5 35 175 215 435 475> 4 92<87.959 144.155> 504 21G<-5 35> 554 92<77.3594 138.281>
VStem: 145 30<96 531> 214 92<78 533> 394 92<46.2344 300>
AnchorPoint: "blwmark" 320 0 basechar 0
AnchorPoint: "abvmark" 320 700 basechar 0
LayerCount: 2
Back
SplineSet
40 550 m 1
 40 550 67 600 99 600 c 3
 128 600 142 575 160 575 c 3
 182 575 200 600 201 600 c 1025
160 550 m 1
 160 75 l 1025
360 355 m 1
 480 475 l 1
 300 600 l 1
 260 560 l 1
 260 40 l 1
 220 0 l 1
 220 0 198 50 120 50 c 3
 65 50 40 0 40 0 c 1033
400 375 m 1
 440 325 l 1
 440 40 l 1
 480 0 l 9
 520 40 l 1049
EndSplineSet
Fore
SplineSet
335 309 m 1
 314 330 l 1
 430 446 l 1
 306 533 l 1
 306 65 l 1
 195 -46 l 1
 174 -25 l 1
 174 -25 173 -21 170 -17 c 0
 154 -6 130 4 95 4 c 0
 79 4 65 -1 55 -6 c 2
 15 -46 l 1
 -6 -25 l 2
 -6 -25 -1 -14 11 -2 c 2
 12 -1 l 2
 82 69 l 2
 95 82 116 96 145 96 c 0
 145 531 l 2
 142 530 138 529 135 529 c 0
 117 529 103 554 74 554 c 0
 70 554 67 553 63 552 c 2
 15 504 l 1
 -6 525 l 1
 -6 525 4 543 18 557 c 2
 88 628 l 2
 98 638 111 646 124 646 c 0
 153 646 167 621 185 621 c 0
 196 621 206 628 213 634 c 2
 225 646 l 2
 226 646 l 2
 247 625 l 1
 245 623 l 2
 244 622 243 620 241 618 c 2
 240 617 l 2
 175 552 l 1
 175 93 l 1
 191 90 204 84 214 78 c 1
 214 535 l 1
 325 646 l 1
 505 521 l 1
 526 500 l 1
 436 410 l 1
 446 400 l 1
 486 350 l 1
 486 65 l 2
 486 56 500 51 505 46 c 1
 545 86 l 1
 566 65 l 1
 455 -46 l 1
 394 15 l 1
 394 300 l 1
 364 338 l 1
 335 309 l 1
EndSplineSet
EndChar
StartChar: U
Encoding: 85 85 53
Width: 560
Flags: W
HStem: -46 92<236.001 323.467> 504 21G<-5 35> 529 92<238.211 278> 554 92<77.3594 166.224> 651 20G<465 505>
VStem: 54 92<138.485 385.012> 205 30<77 522> 274 92<125 525> 434 92<47 72 95.2128 174.999 177 580>
AnchorPoint: "blwmark" 280 0 basechar 0
AnchorPoint: "abvmark" 360 700 basechar 0
LayerCount: 2
Back
SplineSet
320 550 m 1
 320 100 l 1025
460 40 m 25
 500 0 l 25
 540 40 l 1049
460 625 m 25
 500 585 l 1053
480 605 m 13
 480 20 l 1049
200 550 m 1
 200 550 100 466 100 250 c 3
 100 84 171 0 280 0 c 3
 375 0 481 150 482 150 c 1049
40 550 m 1
 40 550 67 600 99 600 c 3
 163 600 182 575 320 575 c 3
 342 575 360 600 361 600 c 1025
220 525 m 1
 220 50 l 1025
EndSplineSet
Fore
SplineSet
15 504 m 1xdf80
 -6 525 l 1
 -6 525 4 543 18 557 c 2
 88 628 l 2
 98 638 111 646 124 646 c 0xdf80
 188 646 207 621 345 621 c 0xef80
 356 621 366 628 373 634 c 2
 385 646 l 2
 386 646 l 2xdf80
 407 625 l 1
 405 623 l 2
 404 622 403 620 401 618 c 2
 400 617 l 2
 362 579 l 1
 366 575 l 1
 366 125 l 1
 295 54 l 1
 274 75 l 1
 274 525 l 1
 278 529 l 1xef80
 262 529 248 530 235 531 c 1
 235 60 l 1
 256 51 280 46 305 46 c 0
 341 46 379 68 411 94 c 0
 422 107 430 118 434 123 c 2
 434 580 l 1
 414 600 l 1
 485 671 l 1
 505 651 l 1
 526 630 l 1
 546 610 l 1
 526 590 l 1
 526 177 l 1
 528 175 l 2
 528 175 527 173 526 172 c 2
 526 47 l 1
 565 86 l 1
 586 65 l 1
 475 -46 l 1
 414 15 l 1
 434 35 l 1
 434 72 l 1
 397 34 l 2
 358 -5 305 -46 255 -46 c 0
 209 -46 170 -31 140 -1 c 2
 118 20 l 2
 77 61 54 129 54 225 c 0
 54 413 129 501 149 521 c 2
 150 521 l 1
 168 539 l 1
 132 546 110 554 74 554 c 0
 70 554 67 553 63 552 c 2
 15 504 l 1xdf80
205 77 m 2
 205 522 l 1
 177 475 146 396 146 275 c 0
 146 188 166 122 200 81 c 0
 202 80 203 78 205 77 c 2
EndSplineSet
EndChar
StartChar: V
Encoding: 86 86 54
Width: 560
Flags: W
HStem: -46 21G<255 295> 504 21G<-5 35> 554 92<77.3594 138.281>
VStem: 145 30<196 531> 214 92<275 535> 354 92<469 530> 414 92<186 420.595>
AnchorPoint: "blwmark" 300 0 basechar 0
AnchorPoint: "abvmark" 360 700 basechar 0
LayerCount: 2
Back
SplineSet
40 550 m 1
 40 550 67 600 99 600 c 3
 128 600 142 575 160 575 c 3
 182 575 200 600 201 600 c 1025
160 550 m 1
 160 175 l 1025
260 250 m 1
 260 560 l 1
 300 600 l 1025
80 100 m 17
 80 100 110 150 140 150 c 3
 299 150 300 0 300 0 c 1
 460 160.799804688 l 1
 460 452 l 1
 460 452 400 455.200195312 400 500 c 3
 400 544 480 600 480 600 c 1025
EndSplineSet
Fore
SplineSet
55 54 m 1xfa
 34 75 l 1
 34 75 44 91 58 105 c 2
 128 176 l 2
 129 177 l 0
 134 182 139 187 145 190 c 1
 145 531 l 2
 142 530 138 529 135 529 c 0
 117 529 103 554 74 554 c 0
 70 554 67 553 63 552 c 2
 15 504 l 1
 -6 525 l 1
 -6 525 4 543 18 557 c 2
 88 628 l 2
 98 638 111 646 124 646 c 0
 153 646 167 621 185 621 c 0
 196 621 206 628 213 634 c 2
 225 646 l 2
 226 646 l 2
 247 625 l 1
 245 623 l 2
 244 622 243 620 241 618 c 2
 240 617 l 2
 175 552 l 1
 175 196 l 1
 225 194 258 176 280 154 c 2
 301 133 l 2
 323 111 334 84 340 62 c 1
 414 136 l 1
 414 410 l 1xfa
 405 413 395 417 387 425 c 2
 366 446 l 1
 365 447 l 0
 358 454 354 463 354 475 c 0
 354 496 372 520 391 539 c 2
 462 610 l 2
 463 611 l 2
 484 632 505 646 505 646 c 2
 526 625 l 1
 456 554 l 2
 451 545 446 535 446 525 c 0xfc
 446 518 447 513 449 508 c 0
 465 499 485 498 485 498 c 1
 506 477 l 1
 506 186 l 1
 346 25 l 1
 275 -46 l 1
 254 -25 l 1
 254 -25 254 -21 253 -14 c 0
 251 4 244 41 219 72 c 1
 196 90 162 104 115 104 c 0
 111 104 107 103 102 101 c 2
 55 54 l 1xfa
235 204 m 1
 214 225 l 1
 214 535 l 1
 325 646 l 1
 346 625 l 1
 306 585 l 1
 306 275 l 1
 235 204 l 1
EndSplineSet
EndChar
StartChar: W
Encoding: 87 87 55
Width: 800
Flags: W
HStem: -46 21G<255 295 495 535> 504 21G<-5 35> 554 92<77.3594 138.281>
VStem: 145 30<196 531> 214 92<275 535> 414 92<186 555> 594 92<468.5 530> 654 92<186 420.595>
AnchorPoint: "blwmark" 440 0 basechar 0
AnchorPoint: "abvmark" 460 700 basechar 0
LayerCount: 2
Back
SplineSet
440 600 m 25
 480 560 l 1049
40 550 m 1
 40 550 67 600 99 600 c 3
 128 600 142 575 160 575 c 3
 182 575 200 600 201 600 c 1025
160 550 m 1
 160 175 l 1025
260 250 m 1
 260 560 l 1
 300 600 l 1025
80 100 m 17
 80 100 110 150 140 150 c 3
 299 150 300 0 300 0 c 1
 460 160.799804688 l 1
 460 580 l 1025
720 600 m 1
 720 600 640 544 640 500 c 3
 640 455.200195312 700 452 700 452 c 1
 700 160.799804688 l 1
 540 0 l 1
 460 160.799804688 l 1049
EndSplineSet
Fore
SplineSet
766 625 m 1xfe
 696 554 l 2
 690 544 686 535 686 525 c 0xfe
 686 519 687 512 689 508 c 0
 706 499 725 498 725 498 c 2
 746 477 l 1
 746 186 l 1
 586 25 l 1
 515 -46 l 1
 494 -25 l 1
 428 107 l 1
 346 25 l 1
 275 -46 l 1
 254 -25 l 1
 254 -25 254 -21 253 -14 c 0
 251 4 244 41 219 72 c 1
 196 90 162 104 115 104 c 0
 111 104 107 103 102 101 c 2
 55 54 l 1
 34 75 l 1
 34 75 44 91 58 105 c 2
 128 176 l 2
 129 177 l 0
 134 182 139 187 145 190 c 1
 145 531 l 2
 142 530 138 529 135 529 c 0
 117 529 103 554 74 554 c 0
 70 554 67 553 63 552 c 2
 15 504 l 1
 -6 525 l 1
 -6 525 4 543 18 557 c 2
 88 628 l 2
 98 638 111 646 124 646 c 0
 153 646 167 621 185 621 c 0
 196 621 206 628 213 634 c 2
 225 646 l 2
 226 646 l 2
 247 625 l 1
 245 623 l 2
 244 622 243 620 241 618 c 2
 240 617 l 2
 175 552 l 1
 175 196 l 1
 225 194 258 176 280 154 c 2
 301 133 l 2
 323 111 334 84 340 62 c 1
 414 136 l 1
 414 555 l 1
 394 575 l 1
 465 646 l 1
 485 626 l 1
 506 605 l 1
 526 585 l 1
 506 565 l 1
 506 186 l 1
 572 53 l 1
 654 136 l 1
 654 410 l 1xfd
 645 413 635 417 627 425 c 2
 606 446 l 2
 599 453 594 462 594 475 c 0
 594 496 612 520 631 539 c 2
 702 610 l 2
 723 631 745 646 745 646 c 1
 766 625 l 1xfe
235 204 m 1
 214 225 l 1
 214 535 l 1
 325 646 l 1
 346 625 l 1
 306 585 l 1
 306 275 l 1
 235 204 l 1
EndSplineSet
EndChar
StartChar: X
Encoding: 88 88 56
Width: 480
Flags: W
HStem: 514 21G<15 55 379 415> 626 20G<105 145 385 425>
AnchorPoint: "abvmark" 240 700 basechar 0
LayerCount: 2
Back
SplineSet
80 275 m 25
 80 275 125 325 160 325 c 27
 223 325 257 300 320 300 c 27
 355 300 400 350 400 350 c 1049
440 40 m 25
 400 0 l 17
 100 600 l 9
 60 560 l 1049
40 40 m 25
 80 0 l 17
 380 600 l 9
 420 560 l 1049
EndSplineSet
Fore
SplineSet
-6 15 m 1
 65 86 l 1
 81 70 l 1
 183 274 l 1
 168 277 153 279 135 279 c 0
 112 279 84 257 68 242 c 2
 55 229 l 1
 34 250 l 1
 34 250 36 253 40 257 c 2
 111 327 l 2
 120 336 140 354 160 364 c 1
 68 547 l 1
 35 514 l 1
 14 535 l 1
 125 646 l 1
 146 625 l 1
 252 412 l 1
 334 575 l 1
 405 646 l 1
 466 585 l 1
 395 514 l 1
 379 530 l 1
 290 352 l 1
 307 348 324 346 345 346 c 0
 369 346 397 369 412 383 c 2
 425 396 l 1
 446 375 l 2
 446 375 444 373 440 369 c 2
 440 368 l 2
 369 298 l 2
 360 289 344 274 326 264 c 1
 432 53 l 1
 465 86 l 1
 486 65 l 1
 375 -46 l 1
 354 -25 l 1
 228 228 l 1
 126 25 l 1
 55 -46 l 1
 -6 15 l 1
EndSplineSet
EndChar
StartChar: backslash
Encoding: 92 92 60
Width: 400
Flags: W
HStem: -196 21G<315 355>
LayerCount: 2
Back
SplineSet
360 -150 m 29
 40 700 l 1049
EndSplineSet
Fore
SplineSet
335 -196 m 1
 314 -175 l 1
 -6 675 l 1
 65 746 l 1
 86 725 l 1
 406 -125 l 1
 335 -196 l 1
EndSplineSet
EndChar
StartChar: asciicircum
Encoding: 94 94 62
Width: 480
Flags: W
LayerCount: 2
Back
SplineSet
80 300 m 25
 240 600 l 25
 400 300 l 1053
EndSplineSet
Fore
SplineSet
55 254 m 1
 34 275 l 1
 194 575 l 1
 265 646 l 1
 286 625 l 1
 446 325 l 1
 375 254 l 1
 354 275 l 1
 227 514 l 1
 126 325 l 1
 55 254 l 1
EndSplineSet
EndChar
StartChar: b
Encoding: 98 98 66
Width: 320
Flags: W
HStem: 426 20G<165 205> 426 20G<165 205> 651 20G<65 105>
VStem: 34 92<70.6892 345 387 580> 194 92<105 329.311>
AnchorPoint: "blwmark" 160 0 basechar 0
AnchorPoint: "abvmark" 160 700 basechar 0
LayerCount: 2
Back
SplineSet
60 625 m 25
 100 585 l 1049
80 605 m 9
 80 80 l 25
 160 0 l 25
 240 80 l 25
 240 320 l 25
 160 400 l 1
 80 320 l 1049
EndSplineSet
Fore
SplineSet
126 345 m 1x38
 126 105 l 2
 126 73 168 63 185 46 c 1
 194 55 l 1
 194 295 l 2
 194 327 152 337 135 354 c 1
 126 345 l 1x38
126 387 m 1
 185 446 l 1xb8
 286 345 l 1
 286 105 l 1
 135 -46 l 1
 34 55 l 1
 34 580 l 1
 14 600 l 1
 85 671 l 1
 105 651 l 1
 126 630 l 1
 146 610 l 1
 126 590 l 1
 126 387 l 1
EndSplineSet
EndChar
StartChar: l
Encoding: 108 108 76
Width: 160
Flags: W
HStem: 651 20G<65 105>
VStem: 34 92<47 580>
AnchorPoint: "blwmark" 80 0 basechar 0
AnchorPoint: "abvmark" 80 700 basechar 0
LayerCount: 2
Back
SplineSet
60 40 m 25
 100 0 l 25
 140 40 l 1049
60 625 m 25
 100 585 l 1049
80 605 m 9
 80 20 l 1049
EndSplineSet
Fore
SplineSet
14 600 m 1
 85 671 l 1
 105 651 l 1
 126 630 l 1
 146 610 l 1
 126 590 l 1
 126 47 l 1
 165 86 l 1
 186 65 l 1
 75 -46 l 1
 55 -26 l 1
 14 15 l 1
 34 35 l 1
 34 580 l 1
 14 600 l 1
EndSplineSet
EndChar
StartChar: m
Encoding: 109 109 77
Width: 480
Flags: W
HStem: 426 20G<65 105 185 225 345 385> 426 20G<65 105 185 225 345 385>
VStem: 34 92<45 325> 194 92<45 325> 354 92<45 342.1>
CounterMasks: 1 38
AnchorPoint: "blwmark" 240 0 basechar 0
AnchorPoint: "abvmark" 240 500 basechar 0
LayerCount: 2
Back
SplineSet
380 40 m 25
 420 0 l 1049
400 20 m 1
 400 340 l 25
 340 400 l 1
 240 300 l 1049
220 40 m 25
 260 0 l 1049
240 20 m 1
 240 340 l 25
 180 400 l 1
 80 300 l 1049
60 40 m 25
 100 0 l 1049
100 360 m 25
 60 400 l 1049
80 380 m 9
 80 20 l 1025
EndSplineSet
Fore
SplineSet
126 405 m 1xb8
 145 386 l 1
 205 446 l 1
 285 366 l 1
 365 446 l 1
 446 365 l 1
 446 45 l 1
 466 25 l 1
 395 -46 l 1
 375 -26 l 1
 365 -15 l 1
 334 15 l 1
 354 35 l 1
 354 315 l 2
 354 335 326 343 315 354 c 1
 286 325 l 1
 286 45 l 1
 306 25 l 1
 235 -46 l 1
 215 -26 l 1
 205 -15 l 1
 174 15 l 1
 194 35 l 1
 194 275 l 1
 194 315 l 2
 194 335 166 343 155 354 c 1
 126 325 l 1
 126 45 l 1
 146 25 l 1
 75 -46 l 1
 55 -26 l 1
 34 -5 l 1
 14 15 l 1
 34 35 l 1
 34 275 l 1
 34 355 l 1
 14 375 l 1
 85 446 l 1
 105 426 l 1
 126 405 l 1xb8
EndSplineSet
Substitution2: "Stylistic alternates-1" m.alt
EndChar
StartChar: s
Encoding: 115 115 83
Width: 320
Flags: W
HStem: -6 92<68.5 134> 314 92<186 251.5> 426 20G<165 205 285 325> 426 20G<165 205 285 325>
VStem: -6 332
AnchorPoint: "blwmark" 160 0 basechar 0
AnchorPoint: "abvmark" 160 500 basechar 0
LayerCount: 2
Back
SplineSet
280 400 m 17
 280 400 248 360 220 360 c 24
 192 360 160 400 160 400 c 9
 80 320 l 1
 80 240 l 1
 240 160 l 1
 240 80 l 1
 160 0 l 17
 160 0 128 40 100 40 c 24
 72 40 40 0 40 0 c 1025
EndSplineSet
Fore
SplineSet
305 446 m 1xe8
 326 425 l 1
 326 425 322 420 315 413 c 2
 244 342 l 2
 232 330 213 314 195 314 c 0
 177 314 158 330 146 342 c 2
 135 354 l 1
 126 345 l 1
 126 275 l 1
 265 206 l 1
 286 185 l 1
 286 105 l 1
 135 -46 l 1
 114 -25 l 1
 113 -24 l 0
 102 -14 88 -6 75 -6 c 0
 62 -6 49 -14 38 -23 c 2
 15 -46 l 1
 -6 -25 l 2
 -6 -25 -3 -20 4 -13 c 2
 5 -13 l 2
 76 58 l 2
 88 70 107 86 125 86 c 0
 143 86 161 70 173 58 c 0
 185 46 l 1
 194 55 l 1
 194 125 l 1
 55 194 l 1
 34 215 l 1
 34 295 l 1
 185 446 l 1
 206 425 l 1
 207 424 l 0
 218 415 232 406 245 406 c 0
 258 406 270 413 282 423 c 2
 305 446 l 1xe8
EndSplineSet
EndChar
StartChar: u
Encoding: 117 117 85
Width: 320
Flags: W
HStem: 426 20G<65 105 225 265> 426 20G<65 105 225 265>
VStem: 34 92<57.9004 355> 194 92<75 355>
AnchorPoint: "blwmark" 160 0 basechar 0
AnchorPoint: "abvmark" 160 500 basechar 0
LayerCount: 2
Back
SplineSet
100 360 m 29
 60 400 l 1053
300 40 m 25
 260 0 l 1
 240 20 l 17
 240 380 l 1029
260 360 m 29
 220 400 l 1049
80 380 m 29
 80 60 l 1
 140 0 l 25
 240 100 l 1049
EndSplineSet
Fore
SplineSet
325 86 m 1xb0
 346 65 l 1
 235 -46 l 1
 194 -5 l 1
 194 33 l 1
 115 -46 l 1
 34 35 l 1
 34 355 l 1
 14 375 l 1
 85 446 l 1
 105 426 l 1
 126 405 l 1
 146 385 l 1
 126 365 l 1
 126 85 l 2
 126 65 154 57 165 46 c 1
 194 75 l 1
 194 355 l 1
 174 375 l 1
 245 446 l 1
 265 426 l 1
 286 405 l 1
 306 385 l 1
 286 365 l 1
 286 125 l 1
 286 47 l 1
 325 86 l 1xb0
EndSplineSet
EndChar
StartChar: w
Encoding: 119 119 87
Width: 480
Flags: W
HStem: 426 170G<65 105 225 265 408.282 449> 426 20G<65 105 225 265>
VStem: 34 92<70.6892 355> 194 92<70.6892 355> 314 92<430.36 498.381> 354 92<105 385.86>
AnchorPoint: "blwmark" 240 0 basechar 0
LayerCount: 2
Back
SplineSet
260 360 m 25
 220 400 l 1049
240 380 m 25
 240 80 l 5
 320 0 l 25
 400 80 l 5
 400 380 l 17
 400 380 360 423 360 472 c 8
 360 507 404 550 404 550 c 1033
100 360 m 25
 60 400 l 1049
80 380 m 25
 80 80 l 5
 160 0 l 29
 240 80 l 1029
EndSplineSet
Fore
SplineSet
126 405 m 1xb4
 146 385 l 1
 126 365 l 1
 126 105 l 2
 126 73 168 63 185 46 c 1
 194 55 l 1
 194 355 l 1
 174 375 l 1
 245 446 l 1x74
 265 426 l 1
 286 405 l 1
 306 385 l 1
 286 365 l 1
 286 105 l 2
 286 73 328 63 345 46 c 1
 354 55 l 1
 354 355 l 1xb4
 354 355 314 398 314 447 c 0
 314 480 354 521 358 525 c 2
 428 596 l 2
 429 596 l 1
 450 575 l 1
 443 567 406 529 406 497 c 0xb8
 406 448 446 405 446 405 c 1
 446 105 l 1
 295 -46 l 1
 215 34 l 1
 135 -46 l 1
 34 55 l 1
 34 355 l 1
 14 375 l 1
 85 446 l 1x74
 105 426 l 1
 126 405 l 1xb4
EndSplineSet
Substitution2: "Dotless forms-1" w.alt
EndChar
StartChar: z
Encoding: 122 122 90
Width: 280
Flags: W
HStem: -196 92<33 93.5> 314 92<52.5017 133.5> 426 20G<45 85 179 205> 426 20G<45 85 179 205>
VStem: 154 92<-150.779 72>
AnchorPoint: "abvmark" 120 500 basechar 0
LayerCount: 2
Back
SplineSet
40 400 m 17
 40 400 65 360 100 360 c 0
 122 360 160 400 160 400 c 1
 200 360 l 1
 80 200 l 5
 200 100 l 1
 200 -150 l 1
 200 -150 162 -200 140 -200 c 0
 114 -200 97 -150 60 -150 c 16
 30 -150 0 -200 0 -200 c 1025
EndSplineSet
Fore
SplineSet
65 446 m 1xe8
 86 425 l 1
 86 425 87 422 90 419 c 0
 100 412 112 406 125 406 c 0
 142 406 168 431 179 441 c 2
 185 446 l 1
 246 385 l 1
 128 227 l 1
 225 146 l 1
 246 125 l 1
 246 -125 l 1
 246 -125 236 -139 223 -152 c 2
 152 -223 l 2
 140 -235 126 -246 115 -246 c 0
 105 -246 98 -240 89 -231 c 2
 69 -211 l 2
 59 -202 49 -196 35 -196 c 0
 31 -196 26 -197 22 -199 c 2
 -25 -246 l 1
 -46 -225 l 1
 -46 -225 -36 -209 -22 -195 c 2
 48 -124 l 2
 59 -113 72 -104 85 -104 c 0
 102 -104 114 -114 125 -125 c 0
 126 -126 l 2
 144 -144 l 2
 147 -147 151 -149 154 -151 c 2
 154 72 l 1
 55 154 l 1
 34 175 l 1
 154 335 l 1
 135 354 l 1
 133 351 l 2
 124 342 94 314 75 314 c 0
 56 314 41 325 30 336 c 2
 9 358 l 2
 0 367 -6 375 -6 375 c 1
 65 446 l 1xe8
EndSplineSet
EndChar
StartChar: braceright
Encoding: 125 125 93
Width: 240
Flags: W
HStem: -196 21G<-5 35>
VStem: 74 92<-45 195 383 617>
LayerCount: 2
Back
SplineSet
40 700 m 25
 120 650 l 1
 120 350 l 25
 200 300 l 25
 120 220 l 25
 120 -70 l 1
 40 -150 l 1049
EndSplineSet
Fore
SplineSet
-6 675 m 1
 65 746 l 1
 145 696 l 1
 166 675 l 1
 166 383 l 1
 225 346 l 1
 246 325 l 1
 166 245 l 1
 166 -45 l 1
 15 -196 l 1
 -6 -175 l 1
 74 -95 l 1
 74 195 l 1
 149 270 l 1
 95 304 l 1
 74 325 l 1
 74 617 l 1
 15 654 l 1
 -6 675 l 1
EndSplineSet
EndChar
StartChar: section
Encoding: 167 167 206
Width: 400
Flags: W
HStem: -206 92<93.2386 180.578> 614 92<222.71 310.492>
VStem: 34 92<178 295 488 595> 274 92<-95 12 205 322>
LayerCount: 2
Back
SplineSet
160 400 m 25
 80 320 l 25
 80 140 l 25
 320 50 l 25
 320 -120 l 25
 240 -200 l 17
 240 -200 176 -160 130 -160 c 27
 92 -160 40 -200 40 -200 c 1033
360 700 m 17
 360 700 315 660 280 660 c 27
 231 660 160 700 160 700 c 9
 80 620 l 25
 80 450 l 25
 320 360 l 25
 320 180 l 25
 240 100 l 1049
EndSplineSet
Fore
SplineSet
406 725 m 1
 335 654 l 1
 335 654 290 614 255 614 c 0
 206 614 135 654 135 654 c 2
 135 654 128 647 126 645 c 2
 126 488 l 1
 345 406 l 1
 366 385 l 1
 366 205 l 1
 281 120 l 1
 345 96 l 1
 366 75 l 1
 366 -95 l 1
 215 -246 l 1
 215 -246 151 -206 105 -206 c 0
 67 -206 15 -246 15 -246 c 1
 -6 -225 l 1
 65 -154 l 1
 65 -154 117 -114 155 -114 c 0
 201 -114 265 -154 265 -154 c 1
 274 -145 l 1
 274 12 l 1
 55 94 l 1
 34 115 l 1
 34 295 l 1
 119 380 l 1
 55 404 l 1
 34 425 l 1
 34 595 l 1
 185 746 l 1
 185 746 256 706 305 706 c 0
 340 706 385 746 385 746 c 1
 406 725 l 1
250 131 m 1
 274 155 l 1
 274 322 l 1
 150 369 l 1
 126 345 l 1
 126 178 l 1
 250 131 l 1
EndSplineSet
EndChar
StartChar: copyright
Encoding: 169 169 221
Width: 560
Flags: W
HStem: -34 68<211.092 369.995> 101 68<263.638 321.254> 431 68<291 354.309> 566 68<190.005 348.908>
VStem: 6 68<191.513 430.062> 137 68<222.048 366.64> 240 16<200 388 430 439 468 469.561> 269 68<213 387> 486 68<169.938 408.487>
LayerCount: 2
Back
SplineSet
248 438 m 1
 248 190 l 1025
303 410 m 5
 303 190 l 1029
248 465 m 5
 248 465 171 399 171 300 c 7
 171 208 214 135 293 135 c 7
 345 135 402 218 403 218 c 1029
248 406 m 5
 248 406 290 465 316 465 c 7
 344 465 332 438 358 438 c 7
 379 438 390 465 391 465 c 1029
40 350 m 4
 40 475 140 600 240 600 c 4
 440 600 520 500 520 250 c 4
 520 125 420 0 320 0 c 4
 120 0 40 100 40 350 c 4
EndSplineSet
Fore
SplineSet
6 327 m 0
 6 400 40 473 88 521 c 2
 145 577 l 2
 179 611 221 634 263 634 c 0
 353 634 419 613 464 568 c 2
 474 558 l 2
 529 503 554 410 554 273 c 0
 554 200 520 127 472 79 c 2
 415 23 l 2
 381 -11 339 -34 297 -34 c 0
 207 -34 141 -13 96 32 c 2
 86 42 l 2
 31 97 6 190 6 327 c 0
74 373 m 0
 74 240 97 150 148 94 c 1
 193 53 257 34 343 34 c 0
 373 34 404 46 431 65 c 1
 464 110 486 169 486 227 c 0
 486 360 463 450 412 506 c 1
 367 547 303 566 217 566 c 0
 187 566 156 554 129 535 c 1
 96 490 74 431 74 373 c 0
225 372 m 1
 214 383 l 1
 214 383 225 399 240 414 c 1
 240 439 l 1
 222 410 205 370 205 323 c 0
 205 274 217 230 240 200 c 1
 240 388 l 1
 225 372 l 1
282 488 m 1
 268 474 l 2
 264 470 260 465 256 460 c 1
 256 430 l 1
 301 475 l 2
 302 476 l 0
 315 489 328 499 339 499 c 0
 347 499 352 496 355 493 c 2
 366 482 l 2
 369 479 370 476 372 473 c 0
 374 472 377 472 381 472 c 0
 383 472 386 473 388 473 c 2
 414 499 l 2
 425 488 l 2
 424 486 419 478 412 471 c 2
 412 470 l 2
 355 414 l 2
 350 409 345 404 337 404 c 1
 337 213 l 1
 294 171 l 1
 301 170 308 169 316 169 c 0
 332 169 349 177 363 187 c 0
 367 192 368 194 369 195 c 2
 426 251 l 2
 426 252 l 2
 437 241 l 1
 434 238 420 219 401 200 c 2
 345 144 l 2
 324 123 296 101 270 101 c 0
 239 101 214 113 194 132 c 2
 193 132 l 1
 183 143 l 2
 153 173 137 221 137 277 c 0
 137 358 189 417 208 436 c 2
 240 468 l 1
 240 478 l 1
 250 478 l 1
 264 492 l 2
 271 499 l 1
 282 488 l 1
307 424 m 2
 306 426 305 428 304 430 c 0
 302 431 297 431 293 431 c 0
 289 431 285 430 280 428 c 2
 256 403 l 1
 256 186 l 1
 260 183 264 180 269 178 c 1
 269 387 l 1
 307 424 l 2
EndSplineSet
EndChar
StartChar: ordfeminine
Encoding: 170 170 210
Width: 320
Flags: W
HStem: 154 92<65 255> 534 21G<55 95> 576 20G<145 176>
VStem: 34 92<385 465> 194 92<375 479 576 634>
LayerCount: 2
Back
SplineSet
40 200 m 25
 280 200 l 1049
100 580 m 17
 80 640 l 1
 140 700 l 1
 240 675 l 1
 240 320 l 1
 260 300 l 1
 300 340 l 1049
240 400 m 25
 140 300 l 1
 80 360 l 1
 80 490 l 1
 140 550 l 1
 140 550 155 525 200 525 c 3
 215 525 240 525 240 525 c 1033
EndSplineSet
Fore
SplineSet
75 534 m 1
 54 555 l 1
 34 615 l 1
 165 746 l 1
 265 721 l 1
 286 700 l 1
 286 550 l 1
 286 425 l 1
 286 347 l 1
 325 386 l 1
 346 365 l 1
 235 254 l 1
 194 295 l 1
 194 333 l 1
 115 254 l 1
 34 335 l 1
 34 465 l 1
 165 596 l 1
 176 585 l 2
 181 582 186 579 194 576 c 1
 194 634 l 1
 131 650 l 1
 146 605 l 1
 75 534 l 1
-6 175 m 1
 65 246 l 1
 305 246 l 1
 326 225 l 1
 255 154 l 1
 15 154 l 1
 -6 175 l 1
194 479 m 1
 175 479 l 2
 150 479 135 487 126 493 c 1
 126 385 l 1
 165 346 l 1
 194 375 l 1
 194 479 l 1
EndSplineSet
EndChar
StartChar: macron
Encoding: 175 175 227
Width: 320
Flags: W
HStem: 504 92<85 235>
VStem: 14 292
LayerCount: 2
Back
SplineSet
60 550 m 1
 260 550 l 1053
EndSplineSet
Fore
SplineSet
14 525 m 1
 85 596 l 1
 285 596 l 1
 306 575 l 1
 235 504 l 1
 35 504 l 1
 14 525 l 1
EndSplineSet
EndChar
StartChar: plusminus
Encoding: 177 177 213
Width: 480
Flags: W
HStem: -21 92<105 375> 329 92<105 194 286 375>
VStem: 194 92<200 329 421 550>
LayerCount: 2
Back
SplineSet
80 25 m 29
 400 25 l 1053
240 575 m 25
 240 175 l 1049
80 375 m 25
 400 375 l 1049
EndSplineSet
Fore
SplineSet
34 350 m 1
 105 421 l 1
 194 421 l 1
 194 550 l 1
 265 621 l 1
 286 600 l 1
 286 421 l 1
 425 421 l 1
 446 400 l 1
 375 329 l 1
 286 329 l 1
 286 200 l 1
 215 129 l 1
 194 150 l 1
 194 329 l 1
 55 329 l 1
 34 350 l 1
34 0 m 1
 105 71 l 1
 425 71 l 1
 446 50 l 1
 375 -21 l 1
 55 -21 l 1
 34 0 l 1
EndSplineSet
EndChar
StartChar: acute
Encoding: 180 180 99
Width: 320
Flags: W
HStem: 479 267
VStem: 74 192
LayerCount: 2
Back
SplineSet
220 700 m 21
 220 600 120 525 120 525 c 1053
EndSplineSet
Fore
SplineSet
245 746 m 1
 266 725 l 1
 266 658 222 603 192 573 c 2
 121 502 l 2
 106 487 95 479 95 479 c 2
 74 500 l 1
 124 550 l 1
 148 580 174 625 174 675 c 1
 245 746 l 1
EndSplineSet
EndChar
StartChar: cedilla
Encoding: 184 184 102
Width: 320
Flags: W
HStem: -221 92<66.7305 154.255>
VStem: -6 292
LayerCount: 2
Back
SplineSet
160 0 m 25
 140 -25 l 1
 240 -100 l 5
 160 -200 l 5
 160 -200 139 -175 100 -175 c 3
 52 -175 40 -200 40 -200 c 1025
EndSplineSet
Fore
SplineSet
185 46 m 1
 206 25 l 1
 189 3 l 1
 265 -54 l 1
 286 -75 l 1
 206 -175 l 1
 135 -246 l 1
 131 -242 l 2
 123 -235 104 -221 75 -221 c 0
 52 -221 38 -226 29 -232 c 2
 15 -246 l 1
 -6 -225 l 1
 -6 -225 -5 -222 -1 -218 c 2
 70 -147 l 2
 77 -140 94 -129 125 -129 c 0
 150 -129 168 -140 177 -147 c 1
 191 -128 l 1
 115 -71 l 1
 94 -50 l 1
 114 -25 l 1
 185 46 l 1
EndSplineSet
EndChar
StartChar: guillemotright
Encoding: 187 187 216
Width: 440
Flags: W
LayerCount: 2
Back
SplineSet
260 325 m 21
 260 325 277 295 300 275 c 4
 376 207 400 200 400 200 c 5
 400 200 349 174 280 100 c 4
 263 82 240 50 240 50 c 1037
60 325 m 17
 60 325 77 295 100 275 c 0
 176 207 200 200 200 200 c 1
 200 200 149 174 80 100 c 0
 63 82 40 50 40 50 c 1033
EndSplineSet
Fore
SplineSet
85 371 m 1
 106 350 l 1
 106 350 115 333 129 317 c 0
 177 274 204 257 216 250 c 0
 222 246 225 246 225 246 c 1
 246 225 l 1
 175 154 l 1
 175 154 150 140 112 108 c 0
 98 91 86 75 86 75 c 2
 15 4 l 1
 -6 25 l 1
 -6 25 17 57 34 75 c 0
 40 81 45 87 50 92 c 0
 51 93 51 93 52 94 c 2
 123 165 l 2
 127 169 133 174 137 178 c 1
 122 189 101 206 75 229 c 0
 73 231 71 233 69 235 c 0
 68 235 l 2
 68 236 l 1
 47 257 l 2
 28 276 14 300 14 300 c 1
 85 371 l 1
285 371 m 1
 306 350 l 1
 306 350 315 333 329 317 c 0
 377 274 404 257 416 250 c 0
 422 246 425 246 425 246 c 1
 446 225 l 1
 375 154 l 1
 375 154 350 140 312 108 c 0
 298 91 286 75 286 75 c 2
 215 4 l 1
 194 25 l 1
 194 25 217 57 234 75 c 0
 240 81 245 87 250 92 c 0
 251 93 251 93 252 94 c 2
 323 165 l 2
 327 169 333 174 337 178 c 1
 322 189 301 206 275 229 c 0
 273 231 271 233 269 235 c 0
 268 235 l 2
 268 236 l 1
 247 257 l 2
 228 276 214 300 214 300 c 1
 285 371 l 1
EndSplineSet
EndChar
StartChar: questiondown
Encoding: 191 191 201
Width: 320
Flags: W
HStem: 426 20G<145 185> 426 20G<145 185>
VStem: 34 92<-115 -55> 114 92<75 175> 194 92<-115 -75>
LayerCount: 2
Back
SplineSet
240 -50 m 25
 240 -140 l 25
 180 -200 l 25
 80 -150 l 25
 80 -30 l 25
 160 50 l 25
 160 200 l 1049
180 360 m 25
 140 400 l 1049
EndSplineSet
Fore
SplineSet
226 385 m 1x80
 155 314 l 1
 94 375 l 1
 165 446 l 1
 226 385 l 1x80
265 -4 m 1
 286 -25 l 1
 286 -115 l 1
 155 -246 l 1
 55 -196 l 1
 34 -175 l 1
 34 -55 l 1x28
 114 25 l 1
 114 175 l 1
 185 246 l 1
 206 225 l 1
 206 75 l 1x10
 126 -5 l 1
 126 -115 l 1
 194 -149 l 1
 194 -75 l 1x28
 265 -4 l 1
EndSplineSet
EndChar
StartChar: AE
Encoding: 198 198 188
Width: 920
Flags: W
HStem: -46 92<576.754 683.467> 446 21G<515 545> 467 62G<135 175 515 545> 504 92<729 787.5> 554 92<191.5 251 653.5 716.5>
VStem: 234 92<391.017 525> 545 30<86 456 539 555> 614 92<125 276 370 475>
AnchorPoint: "blwmark" 480 0 basechar 0
AnchorPoint: "abvmark" 480 700 basechar 0
LayerCount: 2
Back
SplineSet
420 550 m 9
 380 600 l 25
 340 550 l 1041
160 300 m 1
 160 300 184 350 240 350 c 3
 342 350 400 250 401 250 c 1025
180 575 m 1
 180 575 188 600 220 600 c 11
 259 600 280 549 280 500 c 3
 280 263 141 75 141 75 c 1025
40 0 m 1
 40 0 65 50 120 50 c 3
 198 50 220 0 220 0 c 1025
400 575 m 1
 420 300 l 1025
660 300 m 25
 660 300 698 350 720 350 c 27
 748 350 732 300 760 300 c 3
 793 300 820 350 821 350 c 1049
560 550 m 1
 560 100 l 1025
660 500 m 1
 660 100 l 1025
560 600 m 1
 560 600 420 480 420 300 c 3
 420 134 496 0 640 0 c 3
 735 0 841 150 842 150 c 1025
560 492 m 1
 560 492 636 600 684 600 c 3
 735 600 714 550 760 550 c 3
 798 550 820 600 821 600 c 1025
EndSplineSet
Fore
SplineSet
535 446 m 1xc7
 514 467 l 1xa7
 514 467 527 486 545 507 c 1
 545 555 l 1
 507 502 466 423 466 325 c 0
 466 231 491 147 538 92 c 0
 540 90 543 88 545 86 c 2
 545 456 l 1
 535 446 l 1xc7
606 625 m 1
 580 599 l 2
 578 597 577 595 575 593 c 2
 575 539 l 1
 640 604 l 2
 663 627 688 646 709 646 c 0xaf
 724 646 733 641 739 635 c 2
 760 614 l 2
 765 609 768 603 771 598 c 0
 775 597 779 596 785 596 c 0x97
 790 596 795 597 798 598 c 2
 846 646 l 2x8f
 867 625 l 2
 866 623 857 606 844 593 c 2
 774 522 l 2
 764 512 751 504 735 504 c 0x97
 723 504 715 508 710 513 c 2
 706 517 l 1
 706 370 l 1
 708 373 l 2
 720 385 734 396 745 396 c 0
 750 396 753 394 756 391 c 2
 778 370 l 2
 783 364 785 355 787 346 c 0
 791 346 795 348 798 349 c 2
 846 396 l 2
 867 375 l 2
 865 372 857 358 844 345 c 2
 843 344 l 2
 772 273 l 2
 762 263 749 254 735 254 c 0
 730 254 727 255 724 258 c 0
 724 259 l 2
 706 276 l 1
 706 125 l 1
 635 54 l 1
 614 75 l 1
 614 275 l 1
 614 475 l 1
 682 543 l 2
 680 546 679 548 677 551 c 0
 673 553 666 554 659 554 c 0
 648 554 636 549 624 540 c 1
 613 527 606 517 606 517 c 1
 575 486 l 1
 575 67 l 1
 601 54 631 46 665 46 c 0
 701 46 739 68 771 94 c 1
 786 111 795 124 796 125 c 2
 867 196 l 1
 888 175 l 1
 885 172 861 139 827 105 c 2
 757 34 l 2
 718 -5 665 -46 615 -46 c 0
 559 -46 513 -26 478 9 c 2
 478 10 l 1
 456 31 l 2
 414 73 389 134 379 206 c 1
 376 204 l 2
 355 225 l 2
 354 226 346 239 331 256 c 0
 318 268 302 280 283 289 c 1
 242 175 187 100 187 100 c 2
 179 92 l 1
 204 86 221 75 231 65 c 2
 252 44 l 2
 262 34 266 25 266 25 c 1
 195 -46 l 1
 174 -25 l 1
 174 -25 173 -21 170 -17 c 0
 155 -6 130 4 95 4 c 0
 79 4 66 0 55 -6 c 2
 15 -46 l 1
 -6 -25 l 1
 -6 -25 0 -13 12 -1 c 2
 82 69 l 2
 91 78 106 88 123 93 c 1
 149 137 187 212 211 304 c 1
 197 303 186 300 176 295 c 2
 135 254 l 1
 114 275 l 1
 114 275 120 287 132 299 c 2
 202 370 l 2
 209 377 217 383 228 388 c 1
 232 416 234 445 234 475 c 0
 234 502 228 530 216 549 c 0
 210 552 202 554 195 554 c 0
 188 554 182 553 177 551 c 2
 155 529 l 1
 134 550 l 1
 134 550 136 557 143 563 c 2
 213 634 l 2
 219 640 230 646 245 646 c 0
 257 646 268 641 277 632 c 2
 298 611 l 2
 309 600 318 582 322 563 c 1
 405 646 l 1
 425 626 l 1
 446 605 l 1
 466 585 l 1
 449 567 l 1
 453 506 l 1
 472 533 491 553 502 564 c 2
 573 634 l 2
 581 642 585 646 585 646 c 1xaf
 606 625 l 1
311 389 m 1
 333 382 352 371 368 359 c 1
 354 553 l 1
 326 525 l 1
 326 477 320 432 311 389 c 1
EndSplineSet
EndChar
StartChar: germandbls
Encoding: 223 223 131
Width: 400
Flags: W
HStem: -196 92<-67 -8.5> 314 92<175.293 246.842> 426 20G<285 325> 426 20G<285 325> 564 92<206 272.5>
VStem: 54 92<2.88473 326 431.678 545> 274 92<-127.989 72>
AnchorPoint: "abvmark" 240 750 basechar 0
LayerCount: 2
Back
SplineSet
120 400 m 1
 120 400 179 360 214 360 c 3
 273 360 280 400 280 400 c 1
 320 360 l 1
 200 200 l 1
 320 100 l 1
 320 -150 l 1
 320 -150 282 -200 260 -200 c 1
 207 -113 100 0 100 0 c 1025
-100 -200 m 17
 -100 -200 -70 -150 -40 -150 c 8
 -3 -150 3 -200 40 -200 c 24
 70 -200 100 -150 100 -150 c 1
 100 570 l 1
 180 650 l 17
 180 650 212 610 240 610 c 24
 268 610 300 650 301 650 c 1033
EndSplineSet
Fore
SplineSet
-125 -246 m 1xee
 -146 -225 l 1
 -146 -225 -136 -209 -122 -195 c 2
 -52 -124 l 2
 -51 -123 l 0
 -40 -112 -28 -104 -15 -104 c 0
 -2 -104 7 -110 15 -118 c 2
 36 -139 l 2
 37 -140 l 0
 39 -142 42 -145 44 -147 c 0
 47 -149 51 -151 54 -152 c 2
 54 -25 l 1
 54 545 l 1
 205 696 l 1
 226 675 l 1
 227 674 l 0
 238 664 252 656 265 656 c 0
 280 656 297 668 308 678 c 2
 325 696 l 2
 326 696 l 2
 347 675 l 1
 345 672 l 2
 343 670 341 668 338 665 c 2
 337 664 l 2
 266 594 l 2
 254 582 234 564 215 564 c 0
 197 564 179 580 167 592 c 0
 155 604 l 1
 146 595 l 1
 146 445 l 1
 155 439 207 406 239 406 c 0
 251 406 262 408 269 410 c 2
 305 446 l 1
 366 385 l 1
 248 227 l 1
 345 146 l 1
 366 125 l 1
 366 -125 l 1
 366 -125 356 -139 343 -152 c 2
 272 -223 l 2
 260 -235 246 -246 235 -246 c 1
 214 -225 l 1
 195 -194 169 -159 144 -128 c 1
 141 -133 132 -145 122 -155 c 2
 52 -226 l 2
 41 -237 28 -246 15 -246 c 0
 2 -246 -7 -240 -15 -232 c 2
 -36 -211 l 2
 -39 -208 -42 -206 -44 -203 c 0
 -50 -199 -57 -196 -65 -196 c 0
 -69 -196 -73 -197 -78 -199 c 2
 -125 -246 l 1xee
146 326 m 1
 146 25 l 2
 146 25 219 -52 274 -128 c 1
 274 72 l 1
 175 154 l 1
 154 175 l 1
 274 335 l 1
 260 349 l 1
 243 332 l 2
 234 323 217 314 189 314 c 0
 176 314 161 319 146 326 c 1
EndSplineSet
EndChar
StartChar: oslash
Encoding: 248 248 183
Width: 320
Flags: W
HStem: 426 20G<165 205 285 325> 426 20G<165 205 285 325>
VStem: 34 92<195 295> 194 92<105 205>
AnchorPoint: "abvmark" 160 500 basechar 0
LayerCount: 2
Back
SplineSet
280 400 m 25
 40 0 l 1049
160 400 m 25
 80 320 l 25
 80 80 l 25
 160 0 l 25
 240 80 l 25
 240 320 l 25
 160 400 l 25
EndSplineSet
Fore
SplineSet
135 354 m 1x30
 126 345 l 1
 126 195 l 1
 192 306 l 1
 184 330 150 339 135 354 c 1x30
34 295 m 1
 185 446 l 1
 245 386 l 1
 305 446 l 1xb0
 326 425 l 1
 281 350 l 1
 286 345 l 1
 286 105 l 1
 135 -46 l 1
 75 14 l 1
 15 -46 l 1
 -6 -25 l 1
 39 50 l 1
 34 55 l 1
 34 295 l 1
128 94 m 1
 136 70 170 61 185 46 c 1
 194 55 l 1
 194 205 l 1
 128 94 l 1
EndSplineSet
EndChar
StartChar: thorn
Encoding: 254 254 179
Width: 320
Flags: W
HStem: -196 21G<35 75> 426 20G<165 205> 426 20G<165 205> 651 20G<65 105>
VStem: 34 92<-125 -37 77.4332 345 387 580> 194 92<105 329.311>
AnchorPoint: "abvmark" 160 700 basechar 0
LayerCount: 2
Back
SplineSet
40 0 m 1
 40 0 77 40 100 40 c 0
 123 40 160 0 160 0 c 9
 240 80 l 1
 240 320 l 25
 160 400 l 1
 80 320 l 1049
60 625 m 25
 100 585 l 1049
80 605 m 1
 80 -150 l 1025
EndSplineSet
Fore
SplineSet
14 600 m 1xdc
 85 671 l 1
 105 651 l 1
 126 630 l 1
 146 610 l 1
 126 590 l 1
 126 387 l 1
 185 446 l 1
 286 345 l 1
 286 105 l 1
 135 -46 l 1
 126 -37 l 2
 126 -125 l 1
 55 -196 l 1
 34 -175 l 1
 34 -28 l 2
 30 -31 27 -34 24 -37 c 2
 15 -46 l 1
 -6 -25 l 1
 -6 -25 -4 -23 -1 -20 c 2
 34 15 l 1
 34 295 l 1
 34 580 l 1
 14 600 l 1xdc
126 345 m 1
 126 86 l 1
 144 85 170 60 180 50 c 2
 185 46 l 1
 194 55 l 1
 194 295 l 2
 194 327 152 337 135 354 c 1
 126 345 l 1
EndSplineSet
EndChar
StartChar: dcroat
Encoding: 273 273 319
Width: 320
Flags: W
HStem: -46 21G<115.204 155> 426 20G<165 193> 426 20G<165 193> 504 92<129.709 169.438>
VStem: 34 92<90 140 182 295> 194 92<105 208 250 295>
AnchorPoint: "abvmark" 200 700 basechar 0
LayerCount: 2
Back
SplineSet
300 335 m 1
 40 75 l 1025
240 320 m 1
 160 400 l 25
 80 320 l 1
 80 80 l 25
 160 0 l 25
 240 80 l 1
 240 450 l 10
 240 500 195 550 160 550 c 0
 125 550 80 563 80 600 c 27
 80 623 100 630 113 650 c 1049
EndSplineSet
Fore
SplineSet
194 295 m 1x9c
 135 354 l 1
 126 345 l 1
 126 182 l 1
 194 250 l 1
 194 295 l 1x9c
193 438 m 1
 190 457 181 476 170 490 c 0
 158 499 146 504 135 504 c 0
 111 504 83 510 67 526 c 2
 46 547 l 2
 39 554 34 563 34 575 c 0
 34 589 42 597 50 605 c 2
 56 612 l 2
 60 616 64 620 67 625 c 2
 138 696 l 1
 159 675 l 1
 155 669 151 665 146 660 c 0
 146 659 l 2
 139 653 l 2
 132 646 126 638 126 625 c 0
 126 619 127 613 129 608 c 0
 144 600 167 596 185 596 c 0
 200 596 216 587 230 573 c 2
 231 573 l 2
 231 572 l 1
 252 551 l 2
 271 532 286 504 286 475 c 2
 286 342 l 1
 325 381 l 1
 346 360 l 1
 286 300 l 1
 286 105 l 1
 135 -46 l 1
 38 52 l 1
 15 29 l 1
 -6 50 l 1
 34 90 l 1
 34 295 l 1
 185 446 l 1xdc
 193 438 l 1
126 140 m 1
 126 105 l 2
 126 73 168 63 185 46 c 1
 194 55 l 1
 194 208 l 1
 126 140 l 1
EndSplineSet
EndChar
StartChar: Lslash
Encoding: 321 321 288
Width: 560
Flags: W
HStem: -46 21G<-5 35 263 395> 4 92<87.959 145 175 280.012> 426 20G<356.786 405> 426 20G<356.786 405> 504 21G<-5 35> 554 92<77.3594 138.281>
VStem: 145 30<96 218 296 531> 214 92<175 267 324 333 390 535> 394 92<161.941 271> 421 65<234.494 264>
LayerCount: 2
Back
SplineSet
40 550 m 1
 40 550 67 600 99 600 c 3
 128 600 142 575 160 575 c 3
 182 575 200 600 201 600 c 1025
160 550 m 1
 160 75 l 1025
260 150 m 1
 260 560 l 1
 300 600 l 1025
480 300 m 1
 480 300 440 268.799804688 440 240 c 3
 440 191.200195312 480 80.7998046875 480 80.7998046875 c 1
 400 0 l 17
 400 0 279 50 120 50 c 3
 65 50 40 0 40 0 c 1033
360 400 m 25
 80 200 l 1049
EndSplineSet
Fore
SplineSet
406 425 m 1xef80
 335 354 l 1
 306 333 l 1
 306 175 l 1
 235 104 l 1
 214 125 l 1
 214 267 l 1
 175 240 l 1
 175 95 l 1
 313 90 416 49 424 46 c 1
 434 56 l 1
 434 56 394 166 394 215 c 0xef80
 394 232 409 251 421 263 c 0
 421 264 l 2xef40
 492 334 l 2
 499 341 505 346 505 346 c 1
 526 325 l 1
 502 301 l 2
 493 290 486 277 486 265 c 0
 486 216 526 106 526 106 c 1
 446 25 l 1
 375 -46 l 1
 375 -46 254 4 95 4 c 0
 79 4 65 -1 55 -6 c 2
 15 -46 l 1
 -6 -25 l 2
 -6 -25 -1 -14 11 -2 c 2
 12 -1 l 2
 82 69 l 2
 95 82 116 96 145 96 c 2
 145 218 l 1
 55 154 l 1
 34 175 l 1
 105 246 l 1
 145 275 l 1
 145 531 l 2
 142 530 138 529 135 529 c 0
 117 529 103 554 74 554 c 0
 70 554 67 553 63 552 c 2
 15 504 l 1
 -6 525 l 1
 -6 525 4 543 18 557 c 2
 88 628 l 2
 98 638 111 646 124 646 c 0
 153 646 167 621 185 621 c 0
 196 621 206 628 213 634 c 2
 225 646 l 2
 226 646 l 2
 247 625 l 1
 245 623 l 2
 244 622 243 620 241 618 c 2
 240 617 l 2
 175 552 l 1
 175 296 l 1
 214 324 l 1
 214 535 l 1
 325 646 l 1
 346 625 l 1
 306 585 l 1
 306 390 l 1
 385 446 l 1
 406 425 l 1xef80
EndSplineSet
EndChar
StartChar: OE
Encoding: 338 338 116
Width: 1000
Flags: W
HStem: -46 92<236.754 341.528 656.754 763.467> 446 21G<175 205 595 625> 446 21G<175 205 595 625> 504 92<809 867.5> 554 92<733.5 796.5>
VStem: 34 92<183.695 394.761> 205 30<86 456 551 555> 274 92<125 525> 455 92<181.727 446.38> 625 30<86 456 539 555> 694 92<125 276 370 475>
AnchorPoint: "blwmark" 480 0 basechar 0
AnchorPoint: "abvmark" 520 700 basechar 0
LayerCount: 2
Back
SplineSet
740 300 m 25
 740 300 778 350 800 350 c 27
 828 350 812 300 840 300 c 3
 873 300 900 350 901 350 c 1049
640 550 m 1
 640 100 l 1025
740 500 m 1
 740 100 l 1025
640 600 m 1
 640 600 500 480 500 300 c 3
 500 134 576 0 720 0 c 3
 815 0 921 150 922 150 c 1025
640 492 m 1
 640 492 716 600 764 600 c 3
 815 600 794 550 840 550 c 3
 878 550 900 600 901 600 c 1025
220 550 m 1
 220 100 l 1025
322 550 m 1
 320 100 l 1025
220 600 m 1
 220 600 80 480 80 300 c 3
 80 134 156 0 300 0 c 3
 395 0 502 142 502 300 c 3
 502 512 429 600 340 600 c 3
 270 600 220 492 220 492 c 1025
EndSplineSet
Fore
SplineSet
266 625 m 1x8fe0
 240 599 l 2
 238 597 237 595 235 593 c 2
 235 551 l 1
 296 612 l 2
 315 631 339 646 365 646 c 0
 398 646 427 635 453 609 c 2
 475 587 l 2
 496 566 513 536 526 496 c 1
 548 528 569 551 582 564 c 2
 653 634 l 2
 661 642 665 646 665 646 c 1
 686 625 l 1
 660 599 l 2
 658 597 657 595 655 593 c 2
 655 539 l 1
 720 604 l 2
 743 627 768 646 789 646 c 0x8fe0
 804 646 813 641 819 635 c 2
 840 614 l 2
 845 609 848 603 851 598 c 0
 855 597 859 596 865 596 c 0x97e0
 870 596 875 597 878 598 c 2
 926 646 l 2x8fe0
 947 625 l 2
 946 623 937 606 924 593 c 2
 854 522 l 2
 844 512 831 504 815 504 c 0x97e0
 803 504 795 508 790 513 c 2
 786 517 l 1
 786 370 l 1
 788 373 l 2
 800 385 814 396 825 396 c 0
 830 396 833 394 836 391 c 2
 858 370 l 2
 863 364 865 355 867 346 c 0
 871 346 875 348 878 349 c 2
 926 396 l 2
 947 375 l 2
 945 372 937 358 924 345 c 2
 923 344 l 2
 852 273 l 2
 842 263 829 254 815 254 c 0
 810 254 807 255 804 258 c 0
 804 259 l 2
 786 276 l 1
 786 125 l 1
 715 54 l 1
 694 75 l 1
 694 275 l 1
 694 475 l 1
 762 543 l 2
 760 546 759 548 757 551 c 0
 753 553 746 554 739 554 c 0
 728 554 716 549 704 540 c 1
 693 527 686 517 686 517 c 1
 655 486 l 1
 655 67 l 1
 681 54 711 46 745 46 c 0
 781 46 819 68 851 94 c 1
 866 111 875 124 876 125 c 2
 947 196 l 1
 968 175 l 1
 965 172 941 139 907 105 c 2
 837 34 l 2
 798 -5 745 -46 695 -46 c 0
 639 -46 593 -26 558 9 c 2
 558 10 l 1
 536 31 l 2
 513 54 495 82 482 115 c 1
 472 101 461 88 450 77 c 2
 450 76 l 2
 379 6 l 2
 347 -26 310 -46 275 -46 c 0
 219 -46 173 -26 138 9 c 2
 138 10 l 1
 116 31 l 2
 62 85 34 174 34 275 c 0
 34 422 128 530 162 564 c 2
 233 634 l 2
 241 642 245 646 245 646 c 1
 266 625 l 1x8fe0
615 446 m 1xc7e0
 594 467 l 1xa7e0
 594 467 607 486 625 507 c 1
 625 555 l 1
 591 508 555 439 547 356 c 0
 547 346 548 336 548 325 c 0
 548 315 548 306 547 296 c 0
 552 214 576 141 618 92 c 0
 620 90 623 88 625 86 c 2
 625 456 l 1
 615 446 l 1xc7e0
304 553 m 1
 296 552 288 549 282 546 c 0
 271 529 266 517 266 517 c 2
 235 486 l 1
 235 67 l 1
 261 54 291 46 325 46 c 0
 347 46 371 55 392 68 c 1
 425 116 449 179 455 246 c 0
 454 256 454 265 454 275 c 0
 454 286 454 297 455 307 c 0
 451 413 428 484 393 526 c 0
 385 533 377 538 368 542 c 1
 366 125 l 1
 295 54 l 1
 274 75 l 1
 276 525 l 1
 304 553 l 1
205 555 m 1
 167 502 126 423 126 325 c 0
 126 231 151 147 198 92 c 0
 200 90 203 88 205 86 c 2
 205 456 l 1
 195 446 l 1xc7e0
 174 467 l 2
 174 467 185 492 205 518 c 1
 205 555 l 1
EndSplineSet
EndChar
StartChar: florin
Encoding: 402 402 260
Width: 320
Flags: W
HStem: -196 92<-67 -8.5> 354 92<105 113 209 255> 564 92<286 352.5>
LayerCount: 2
Back
SplineSet
-100 -200 m 17
 -100 -200 -70 -150 -40 -150 c 8
 -3 -150 3 -200 40 -200 c 24
 70 -200 100 -150 100 -150 c 1
 180 570 l 5
 260 650 l 17
 260 650 292 610 320 610 c 28
 348 610 380 650 381 650 c 1037
80 400 m 25
 280 400 l 1049
EndSplineSet
Fore
SplineSet
34 375 m 1
 105 446 l 1
 123 446 l 1
 134 545 l 1
 285 696 l 1
 306 675 l 1
 307 674 l 0
 318 664 332 656 345 656 c 0
 360 656 377 668 388 678 c 2
 405 696 l 2
 406 696 l 2
 427 675 l 1
 425 672 l 2
 423 670 420 667 417 664 c 2
 346 594 l 2
 334 582 314 564 295 564 c 0
 277 564 259 580 247 592 c 0
 235 604 l 1
 226 595 l 1
 209 446 l 1
 305 446 l 1
 326 425 l 1
 255 354 l 1
 199 354 l 1
 146 -125 l 1
 146 -125 136 -141 122 -155 c 2
 52 -226 l 2
 41 -237 28 -246 15 -246 c 0
 2 -246 -7 -240 -15 -232 c 2
 -36 -211 l 2
 -39 -208 -42 -206 -44 -203 c 0
 -50 -199 -57 -196 -65 -196 c 0
 -69 -196 -73 -197 -78 -199 c 2
 -125 -246 l 1
 -146 -225 l 1
 -146 -225 -136 -209 -122 -195 c 2
 -52 -124 l 2
 -51 -123 l 0
 -40 -112 -28 -104 -15 -104 c 0
 -2 -104 7 -110 15 -118 c 2
 36 -139 l 2
 37 -140 l 0
 39 -142 42 -145 44 -147 c 0
 48 -150 52 -152 56 -153 c 1
 113 354 l 1
 55 354 l 1
 34 375 l 1
EndSplineSet
EndChar
StartChar: HV
Encoding: 502 502 513
Width: 720
Flags: W
HStem: -46 21G<-5 35 175 215 445 495> 4 92<87.959 144.155> 504 21G<-5 35> 554 92<77.3594 138.281>
VStem: 145 30<96 531> 214 92<78 260 302 535> 394 92<72 310> 514 92<469 530> 574 92<146 420.595>
AnchorPoint: "blwmark" 380 0 basechar 0
AnchorPoint: "abvmark" 400 700 basechar 0
LayerCount: 2
Back
SplineSet
40 550 m 1
 40 550 67 600 99 600 c 3
 128 600 142 575 160 575 c 3
 182 575 200 600 201 600 c 1025
160 550 m 1
 160 75 l 1025
300 275 m 1
 400 375 l 1
 440 335 l 1
 440 40 l 1
 500 0 l 1
 620 120.799804688 l 1
 620 452 l 1
 620 452 560 455.200195312 560 500 c 3
 560 544 640 600 640 600 c 1025
300 600 m 1
 260 560 l 1
 260 40 l 1
 220 0 l 1
 220 0 198 50 120 50 c 3
 65 50 40 0 40 0 c 1033
EndSplineSet
Fore
SplineSet
325 646 m 1xfe80
 346 625 l 1
 306 585 l 1
 306 302 l 1
 425 421 l 1
 486 360 l 1
 486 72 l 1
 524 46 l 1
 574 96 l 1
 574 410 l 1xfe80
 565 413 555 417 547 425 c 2
 526 446 l 1
 525 447 l 0
 518 454 514 463 514 475 c 0
 514 496 532 520 551 539 c 2
 622 610 l 2
 623 611 l 2
 644 632 665 646 665 646 c 2
 686 625 l 1
 616 554 l 2
 611 545 606 535 606 525 c 0xff
 606 518 607 513 609 508 c 0
 625 499 645 498 645 498 c 1
 666 477 l 1
 666 146 l 1
 546 25 l 1
 475 -46 l 1
 415 -6 l 1
 394 15 l 1
 394 310 l 1
 375 329 l 1
 306 260 l 1
 306 65 l 1
 195 -46 l 1
 174 -25 l 1
 174 -25 173 -21 170 -17 c 0
 154 -6 130 4 95 4 c 0
 79 4 65 -1 55 -6 c 2
 15 -46 l 1
 -6 -25 l 2
 -6 -25 -1 -14 11 -2 c 2
 12 -1 l 2
 82 69 l 2
 95 82 116 96 145 96 c 0
 145 531 l 2
 142 530 138 529 135 529 c 0
 117 529 103 554 74 554 c 0
 70 554 67 553 63 552 c 2
 15 504 l 1
 -6 525 l 1
 -6 525 4 543 18 557 c 2
 88 628 l 2
 98 638 111 646 124 646 c 0
 153 646 167 621 185 621 c 0
 196 621 206 628 213 634 c 2
 225 646 l 2
 226 646 l 2
 247 625 l 1
 245 623 l 2
 244 622 243 620 241 618 c 2
 240 617 l 2
 175 552 l 1
 175 93 l 1
 191 90 204 84 214 78 c 1
 214 535 l 1
 325 646 l 1xfe80
EndSplineSet
EndChar
StartChar: ascript
Encoding: 593 593 348
Width: 320
Flags: W
HStem: -46 21G<95 135 215 255> 426 20G<165 205 245 285> 426 20G<165 205 245 285>
VStem: 34 92<57.9004 295> 194 92<75 329>
AnchorPoint: "blwmark" 160 0 basechar 0
AnchorPoint: "abvmark" 180 500 basechar 0
LayerCount: 2
Back
SplineSet
300 40 m 25
 260 0 l 1
 240 20 l 1
 240 400 l 1
 240 400 222 368 200 368 c 0
 178 368 160 400 160 400 c 9
 80 320 l 1
 80 60 l 17
 140 0 l 1
 240 100 l 1049
EndSplineSet
Fore
SplineSet
194 329 m 1x98
 188 325 182 322 175 322 c 0
 165 322 157 328 150 335 c 2
 133 352 l 1
 126 345 l 1
 126 85 l 2
 126 65 154 57 165 46 c 1
 194 75 l 1
 194 329 l 1x98
194 33 m 1
 115 -46 l 1
 34 35 l 1
 34 295 l 1
 185 446 l 1
 206 425 l 1
 206 425 208 422 210 418 c 0
 214 415 220 414 225 414 c 0
 229 414 231 414 235 416 c 2
 265 446 l 1xd8
 286 425 l 1
 286 47 l 1
 325 86 l 1
 346 65 l 1
 235 -46 l 1
 194 -5 l 1
 194 33 l 1
EndSplineSet
EndChar
StartChar: dotaccent
Encoding: 729 729 269
Width: 320
Flags: W
HStem: 504 132
VStem: 94 132
LayerCount: 2
Back
SplineSet
140 590 m 25
 180 550 l 1049
EndSplineSet
Fore
SplineSet
94 565 m 1
 165 636 l 1
 226 575 l 1
 155 504 l 1
 94 565 l 1
EndSplineSet
EndChar
StartChar: dotbelowcmb
Encoding: 803 803 357
Width: 0
VWidth: 400
Flags: W
HStem: -196 132
VStem: -226 132
AnchorPoint: "blwmark" -160 0 mark 0
LayerCount: 2
Back
SplineSet
-180 -110 m 25
 -140 -150 l 1049
EndSplineSet
Fore
SplineSet
-226 -135 m 1
 -155 -64 l 1
 -94 -125 l 1
 -165 -196 l 1
 -226 -135 l 1
EndSplineSet
EndChar
StartChar: tridotright
Encoding: 4347 4347 895
Width: 400
Flags: W
HStem: -46 21G<95 135>
VStem: 54 332
LayerCount: 2
Back
SplineSet
300 195 m 25
 340 155 l 1049
100 350 m 25
 140 310 l 1049
100 40 m 25
 140 0 l 1049
EndSplineSet
Fore
SplineSet
54 15 m 1
 125 86 l 1
 186 25 l 1
 115 -46 l 1
 54 15 l 1
54 325 m 1
 125 396 l 1
 186 335 l 1
 115 264 l 1
 54 325 l 1
254 170 m 1
 325 241 l 1
 386 180 l 1
 315 109 l 1
 254 170 l 1
EndSplineSet
EndChar
StartChar: figuredash
Encoding: 8210 8210 908
Width: 320
Flags: W
HStem: 154 92<105 215>
VStem: 34 252
LayerCount: 2
Back
SplineSet
80 200 m 25
 240 200 l 1049
EndSplineSet
Fore
SplineSet
34 175 m 1
 105 246 l 1
 265 246 l 1
 286 225 l 1
 215 154 l 1
 55 154 l 1
 34 175 l 1
EndSplineSet
EndChar
StartChar: endash
Encoding: 8211 8211 257
Width: 320
Flags: W
HStem: 154 92<65 255>
VStem: -6 332
LayerCount: 2
Back
SplineSet
40 200 m 25
 280 200 l 1049
EndSplineSet
Fore
SplineSet
-6 175 m 1
 65 246 l 1
 305 246 l 1
 326 225 l 1
 255 154 l 1
 15 154 l 1
 -6 175 l 1
EndSplineSet
EndChar
StartChar: emdash
Encoding: 8212 8212 258
Width: 480
Flags: W
HStem: 154 92<65 415>
LayerCount: 2
Back
SplineSet
40 200 m 25
 440 200 l 1049
EndSplineSet
Fore
SplineSet
-6 175 m 1
 65 246 l 1
 465 246 l 1
 486 225 l 1
 415 154 l 1
 15 154 l 1
 -6 175 l 1
EndSplineSet
EndChar
StartChar: dagger
Encoding: 8224 8224 262
Width: 320
Flags: W
HStem: -196 21G<115 155> 426 20G<45 85 214 285> 426 20G<45 85 214 285> 626 20G<185 225>
VStem: 107 105<90.2031 327 433 534.95> 114 92<-125 316.961>
LayerCount: 2
Back
SplineSet
40 400 m 25
 80 360 l 25
 240 400 l 25
 280 360 l 1049
140 560 m 1
 140 560 150 463 152 400 c 24
 158 186 160 -150 160 -150 c 1
 160 -150 162 186 168 400 c 24
 170 478 180 600 180 600 c 9
 140 560 l 1
EndSplineSet
Fore
SplineSet
94 535 m 2xd8
 205 646 l 1
 226 625 l 1
 226 625 216 511 214 433 c 1
 265 446 l 1
 326 385 l 1
 255 314 l 1
 215 354 l 1
 212 353 l 1xd8
 207 143 206 -125 206 -125 c 2
 135 -196 l 1
 114 -175 l 1xd4
 114 -175 112 114 107 327 c 1
 55 314 l 1
 -6 375 l 1
 65 446 l 1
 105 406 l 1
 102 466 94 535 94 535 c 2xd8
EndSplineSet
EndChar
StartChar: perthousand
Encoding: 8240 8240 244
Width: 840
Flags: W
HStem: -196 21G<-5 35 355 395 635 675>
VStem: 34 92<420.689 595> 194 92<455 629.311> 274 92<-79.3108 95> 434 92<-45 129.311> 554 92<-79.3108 95> 714 92<-45 129.311>
LayerCount: 2
Back
SplineSet
680 200 m 25
 600 120 l 25
 600 -70 l 25
 680 -150 l 25
 760 -70 l 25
 760 120 l 25
 680 200 l 25
400 200 m 25
 320 120 l 25
 320 -70 l 25
 400 -150 l 25
 480 -70 l 25
 480 120 l 25
 400 200 l 25
40 -150 m 25
 520 700 l 1049
160 700 m 25
 80 620 l 25
 80 430 l 25
 160 350 l 25
 240 430 l 25
 240 620 l 25
 160 700 l 25
EndSplineSet
Fore
SplineSet
135 654 m 1xee
 126 645 l 1
 126 455 l 2
 126 423 168 413 185 396 c 1
 194 405 l 1
 194 595 l 2
 194 627 152 637 135 654 c 1xee
34 595 m 1
 185 746 l 1
 286 645 l 1
 286 455 l 1
 135 304 l 1
 34 405 l 1
 34 595 l 1
15 -196 m 1
 -6 -175 l 1
 474 675 l 1
 545 746 l 1
 566 725 l 1
 86 -125 l 1
 15 -196 l 1
375 154 m 1
 366 145 l 1
 366 -45 l 2xde
 366 -77 408 -87 425 -104 c 1
 434 -95 l 1
 434 95 l 2
 434 127 392 137 375 154 c 1
274 95 m 1
 425 246 l 1
 526 145 l 1
 526 -45 l 1
 375 -196 l 1
 274 -95 l 1
 274 95 l 1
655 154 m 1
 646 145 l 1
 646 -45 l 2
 646 -77 688 -87 705 -104 c 1
 714 -95 l 1
 714 95 l 2
 714 127 672 137 655 154 c 1
554 95 m 1
 705 246 l 1
 806 145 l 1
 806 -45 l 1
 655 -196 l 1
 554 -95 l 1
 554 95 l 1
EndSplineSet
EndChar
StartChar: minute
Encoding: 8242 8242 926
Width: 240
Flags: W
HStem: 481 265
VStem: 114 92<633.436 675>
LayerCount: 2
Back
SplineSet
160 700 m 17
 160 600 80 525 80 525 c 1041
EndSplineSet
Fore
SplineSet
185 746 m 1
 206 725 l 1
 206 634 140 564 128 552 c 2
 57 481 l 2
 56 480 55 479 55 479 c 1
 34 500 l 1
 38 504 l 2
 54 521 114 589 114 675 c 1
 185 746 l 1
EndSplineSet
EndChar
StartChar: guilsinglleft
Encoding: 8249 8249 242
Width: 240
Flags: W
VStem: -6 252
LayerCount: 2
Back
SplineSet
180 325 m 21
 180 325 163 295 140 275 c 4
 64 207 40 200 40 200 c 5
 40 200 91 174 160 100 c 4
 177 82 200 50 200 50 c 1037
EndSplineSet
Fore
SplineSet
205 371 m 1
 226 350 l 1
 226 350 212 326 193 307 c 2
 123 236 l 1
 122 236 l 2
 121 235 122 235 121 234 c 0
 119 232 117 231 115 229 c 0
 112 226 105 221 104 220 c 1
 121 207 142 189 166 165 c 2
 188 144 l 2
 194 138 200 132 206 125 c 0
 223 107 246 75 246 75 c 1
 175 4 l 1
 154 25 l 1
 154 25 131 57 114 75 c 0
 111 78 109 80 106 83 c 0
 53 134 15 154 15 154 c 1
 -6 175 l 1
 65 246 l 2
 65 246 80 250 126 288 c 0
 130 294 134 300 134 300 c 1
 205 371 l 1
EndSplineSet
EndChar
StartChar: bracketquillleft
Encoding: 8261 8261 916
Width: 240
Flags: W
HStem: -196 92<126 175> 254 92<126 175> 654 92<126 175>
VStem: 34 92<-104 254 346 654>
LayerCount: 2
Back
SplineSet
200 300 m 25
 80 300 l 1049
200 700 m 25
 80 700 l 25
 80 -150 l 25
 200 -150 l 1033
EndSplineSet
Fore
SplineSet
246 725 m 1
 175 654 l 1
 126 654 l 1
 126 346 l 1
 225 346 l 1
 246 325 l 1
 175 254 l 1
 126 254 l 1
 126 -104 l 1
 225 -104 l 1
 246 -125 l 1
 175 -196 l 1
 55 -196 l 1
 34 -175 l 1
 34 275 l 1
 34 675 l 1
 105 746 l 1
 225 746 l 1
 246 725 l 1
EndSplineSet
EndChar
StartChar: because
Encoding: 8757 8757 897
Width: 480
Flags: W
HStem: -46 21G<215 255>
LayerCount: 2
Back
SplineSet
340 350 m 25
 380 310 l 1049
100 350 m 25
 140 310 l 1049
220 40 m 25
 260 0 l 1049
EndSplineSet
Fore
SplineSet
174 15 m 1
 245 86 l 1
 306 25 l 1
 235 -46 l 1
 174 15 l 1
54 325 m 1
 125 396 l 1
 186 335 l 1
 115 264 l 1
 54 325 l 1
294 325 m 1
 365 396 l 1
 426 335 l 1
 355 264 l 1
 294 325 l 1
EndSplineSet
EndChar
StartChar: FleuronCenter
Encoding: 10086 10086 955
Width: 560
Flags: W
HStem: -46 21G<248.5 281.5> 476 20G<174 190> 529 21G<-5 35 381 495> 626 20G<65 298 525 565>
VStem: 14 292<96 299.5>
LayerCount: 2
Back
SplineSet
320 700 m 5
 320 700 360 644 360 600 c 27
 360 521 280 425 280 425 c 1025
40 575 m 25
 60 600 l 25
 500 575 l 25
 520 600 l 1049
440 100 m 1
 440 100 367 0 280 0 c 3
 183 0 60 141 60 300 c 27
 60 376 99 450 160 450 c 27
 210 450 240 325 240 325 c 1
 240 325 270 450 320 450 c 27
 364 450 400 399 400 350 c 3
 400 277 349 244 300 200 c 8
 266 169 260 128 260 75 c 19
 260 47 300 25 300 25 c 1025
EndSplineSet
Fore
SplineSet
343 52 m 1
 365 59 386 71 404 85 c 2
 465 146 l 1
 486 125 l 1
 486 125 475 110 457 92 c 2
 386 21 l 2
 356 -8 308 -46 255 -46 c 0
 242 -46 230 -43 217 -39 c 0
 189 -30 161 -11 135 15 c 2
 114 36 l 2
 113 36 l 0
 57 92 14 180 14 275 c 0
 14 324 30 373 58 401 c 2
 129 471 l 2
 144 486 163 496 185 496 c 0
 195 496 204 491 213 482 c 2
 234 461 l 2
 235 460 l 0
 243 452 250 442 256 430 c 1
 274 457 299 497 309 538 c 1
 40 554 l 1
 15 529 l 1
 -6 550 l 1
 14 575 l 1
 85 646 l 1
 298 634 l 1
 287 658 274 675 274 675 c 1
 345 746 l 1
 366 725 l 1
 366 725 404 672 406 628 c 1
 520 621 l 1
 545 646 l 1
 566 625 l 1
 546 600 l 1
 475 529 l 1
 381 534 l 1
 374 519 366 506 358 494 c 1
 371 491 383 484 393 474 c 2
 414 453 l 2
 414 452 l 0
 433 433 446 404 446 375 c 0
 446 330 427 300 400 273 c 2
 329 202 l 2
 328 201 l 2
 326 199 324 197 324 197 c 0
 309 170 306 139 306 100 c 0
 306 92 309 85 313 79 c 0
 319 74 325 71 325 71 c 1
 343 52 l 1
EndSplineSet
EndChar
StartChar: bracketwhiteright
Encoding: 10215 10215 919
Width: 320
Flags: W
HStem: -196 92<65 125 155 194> 654 92<65 125 155 194>
VStem: 125 30<-104 654> 194 92<-104 654>
LayerCount: 2
Back
SplineSet
140 650 m 25
 140 -100 l 1049
40 700 m 25
 240 700 l 25
 240 -150 l 25
 40 -150 l 1033
EndSplineSet
Fore
SplineSet
-6 675 m 1
 65 746 l 1
 265 746 l 1
 286 725 l 1
 286 -125 l 1
 215 -196 l 1
 15 -196 l 1
 -6 -175 l 1
 65 -104 l 1
 125 -104 l 1
 125 654 l 1
 15 654 l 1
 -6 675 l 1
155 -104 m 1
 194 -104 l 1
 194 654 l 1
 155 654 l 1
 155 -104 l 1
EndSplineSet
EndChar
StartChar: brackettopright
Encoding: 11811 11811 923
Width: 240
Flags: W
HStem: 654 92<65 114>
VStem: 114 92<325 654>
LayerCount: 2
Back
SplineSet
40 700 m 25
 160 700 l 17
 160 300 l 1025
EndSplineSet
Fore
SplineSet
-6 675 m 1
 65 746 l 1
 185 746 l 1
 206 725 l 1
 206 325 l 1
 135 254 l 1
 114 275 l 1
 114 654 l 1
 15 654 l 1
 -6 675 l 1
EndSplineSet
EndChar
StartChar: bracketbottomleft
Encoding: 11812 11812 924
Width: 240
Flags: W
HStem: -196 92<126 175>
VStem: 34 92<-104 275>
LayerCount: 2
Back
SplineSet
80 300 m 1
 80 -150 l 9
 200 -150 l 1033
EndSplineSet
Fore
SplineSet
105 346 m 1
 126 325 l 1
 126 -104 l 1
 225 -104 l 1
 246 -125 l 1
 175 -196 l 1
 55 -196 l 1
 34 -175 l 1
 34 275 l 1
 105 346 l 1
EndSplineSet
EndChar
StartChar: Ubracketleft
Encoding: 11814 11814 912
Width: 400
Flags: W
HStem: -46 92<193.226 335> 354 92<192.504 335>
VStem: 34 92<124.137 275.629>
LayerCount: 2
Back
SplineSet
360 400 m 1
 240 400 l 26
 152 400 80 310 80 200 c 27
 80 90 152 0 240 0 c 26
 360 0 l 1025
EndSplineSet
Fore
SplineSet
406 425 m 1
 335 354 l 1
 215 354 l 2
 194 354 173 348 155 339 c 1
 137 306 126 267 126 225 c 0
 126 168 145 116 176 80 c 1
 201 59 232 46 265 46 c 2
 385 46 l 1
 406 25 l 1
 335 -46 l 1
 215 -46 l 2
 177 -46 143 -29 116 -2 c 2
 94 19 l 2
 57 56 34 112 34 175 c 0
 34 238 57 294 94 331 c 2
 165 402 l 2
 192 429 227 446 265 446 c 2
 385 446 l 1
 406 425 l 1
EndSplineSet
EndChar
StartChar: fivedots
Encoding: 11821 11821 935
Width: 480
Flags: W
LayerCount: 2
Back
SplineSet
220 195 m 25
 260 155 l 1049
360 195 m 25
 400 155 l 1049
220 15 m 25
 260 -25 l 1049
220 375 m 25
 260 335 l 1049
80 195 m 25
 120 155 l 1049
EndSplineSet
Fore
SplineSet
34 170 m 1
 105 241 l 1
 166 180 l 1
 95 109 l 1
 34 170 l 1
174 350 m 1
 245 421 l 1
 306 360 l 1
 235 289 l 1
 174 350 l 1
174 -10 m 1
 245 61 l 1
 306 -0 l 1
 235 -71 l 1
 174 -10 l 1
314 170 m 1
 385 241 l 1
 446 180 l 1
 375 109 l 1
 314 170 l 1
174 170 m 1
 245 241 l 1
 306 180 l 1
 235 109 l 1
 174 170 l 1
EndSplineSet
EndChar
StartChar: a_a
Encoding: 42803 42803 336
Width: 480
Flags: W
HStem: -46 21G<95 135 255 295 375 415> 426 20G<145 245 305 405> 426 20G<145 245 305 405>
VStem: 34 92<85 165> 194 92<85 179 276 334> 354 92<75 179 276 334>
CounterMasks: 1 1c
AnchorPoint: "abvmark" 240 500 basechar 0
AnchorPoint: "blwmark" 240 0 basechar 0
LayerCount: 2
Back
SplineSet
240 340 m 1
 300 400 l 1
 400 375 l 1
 400 20 l 1
 420 0 l 1
 460 40 l 1049
400 100 m 25
 300 0 l 1
 240 60 l 1
 240 190 l 1
 300 250 l 1
 300 250 315 225 360 225 c 3
 375 225 400 225 400 225 c 1033
100 280 m 17
 80 340 l 1
 140 400 l 1
 240 375 l 1
 240 100 l 9
 140 0 l 1
 80 60 l 1
 80 190 l 1
 140 250 l 1
 140 250 155 225 200 225 c 3
 215 225 240 225 240 225 c 1033
EndSplineSet
Fore
SplineSet
194 179 m 1x9c
 175 179 l 2
 150 179 135 187 126 193 c 1
 126 85 l 1
 165 46 l 1
 194 75 l 1
 194 165 l 1
 194 179 l 1x9c
286 125 m 1
 286 85 l 1
 325 46 l 1
 354 75 l 1
 354 179 l 1
 335 179 l 2
 310 179 295 187 286 193 c 1
 286 125 l 1
286 257 m 1
 325 296 l 1
 336 285 l 2
 341 282 346 279 354 276 c 1
 354 334 l 1
 286 351 l 1
 286 257 l 1
195 34 m 1
 115 -46 l 1
 34 35 l 1
 34 165 l 1
 165 296 l 1
 176 285 l 2
 181 281 186 279 194 276 c 1
 194 315 l 1
 194 334 l 1
 131 350 l 1
 146 305 l 1
 75 234 l 1
 54 255 l 1
 34 315 l 1
 165 446 l 1
 265 421 l 1
 282 403 l 1
 325 446 l 1xdc
 425 421 l 1
 446 400 l 1
 446 250 l 1
 446 125 l 1
 446 47 l 1
 485 86 l 1
 506 65 l 1
 395 -46 l 1
 354 -5 l 1
 354 33 l 1
 275 -46 l 1
 195 34 l 1
EndSplineSet
LCarets2: 1 240 
Ligature2: "Historic ligatures-1" a a
EndChar
StartChar: lbroken
Encoding: 42823 42823 574
Width: 280
Flags: W
HStem: -46 21G<175 215> 426 20G<205 245> 426 20G<205 245> 651 20G<65 105>
VStem: 34 92<347 580> 154 92<47 333>
LayerCount: 2
Back
SplineSet
180 40 m 25
 220 0 l 25
 260 40 l 1049
60 625 m 25
 100 585 l 1049
80 605 m 1
 80 280 l 1
 200 400 l 1
 200 20 l 1025
EndSplineSet
Fore
SplineSet
14 600 m 1xdc
 85 671 l 1
 105 651 l 1
 126 630 l 1
 146 610 l 1
 126 590 l 1
 126 347 l 1
 225 446 l 1
 246 425 l 1
 246 47 l 1
 285 86 l 1
 306 65 l 1
 195 -46 l 1
 175 -26 l 1
 154 -5 l 1
 134 15 l 1
 154 35 l 1
 154 333 l 1
 55 234 l 1
 34 255 l 1
 34 580 l 1
 14 600 l 1xdc
EndSplineSet
EndChar
StartChar: oeloop
Encoding: 42829 42829 867
Width: 440
Flags: W
HStem: -46 21G<115 155> 426 20G<165 205 325 365> 426 20G<165 205 325 365>
VStem: 34 92<105 295> 194 92<105 145 187 295>
AnchorPoint: "abvmark" 240 500 basechar 0
AnchorPoint: "blwmark" 240 0 basechar 0
LayerCount: 2
Back
SplineSet
240 80 m 25
 240 320 l 25
 320 400 l 25
 400 320 l 1
 400 280 l 1
 240 120 l 1025
240 80 m 9
 160 0 l 1
 80 80 l 25
 80 320 l 25
 160 400 l 25
 240 320 l 1041
EndSplineSet
Fore
SplineSet
286 187 m 1x98
 354 255 l 1
 354 295 l 1
 295 354 l 1
 286 345 l 1
 286 187 l 1x98
265 366 m 1
 345 446 l 1
 446 345 l 1
 446 305 l 1
 286 145 l 1
 286 105 l 1
 215 34 l 1
 135 -46 l 1
 34 55 l 1
 34 295 l 1
 185 446 l 1xd8
 265 366 l 1
194 295 m 1
 135 354 l 1
 126 345 l 1
 126 105 l 1
 185 46 l 1
 194 55 l 1
 194 295 l 1
EndSplineSet
EndChar
StartChar: psquirrel
Encoding: 42837 42837 870
Width: 400
Flags: W
HStem: -196 21G<115 155> -46 21G<206 235> 426 20G<25 65 145 185 245 285> 426 20G<25 65 145 185 245 285>
VStem: 14 92<130.099 330.233> 114 92<-125 -37 94 345> 274 92<105 295>
AnchorPoint: "abvmark" 240 500 basechar 0
LayerCount: 2
Back
SplineSet
160 320 m 25
 240 400 l 1
 320 320 l 25
 320 80 l 1
 240 0 l 1
 240 0 238 50 20 50 c 1
 20 50 60 156 60 200 c 3
 60 332 20 400 20 400 c 1033
140 400 m 25
 180 360 l 1049
160 380 m 1
 160 -150 l 1025
EndSplineSet
Fore
SplineSet
206 345 m 1xce
 206 81 l 1
 236 73 251 64 258 57 c 2
 267 48 l 1
 274 55 l 1
 274 295 l 1
 215 354 l 1
 206 345 l 1xce
94 375 m 1
 165 446 l 1
 185 426 l 1
 206 405 l 1
 215 396 l 1
 265 446 l 1
 366 345 l 1
 366 105 l 1
 215 -46 l 1
 206 -37 l 1
 206 -125 l 1
 135 -196 l 1
 114 -175 l 1
 114 -3 l 1
 84 1 45 4 -5 4 c 1
 -26 25 l 1
 -26 25 14 131 14 175 c 0
 14 307 -26 375 -26 375 c 1
 45 446 l 1xee
 66 425 l 1
 66 425 106 357 106 225 c 0
 106 193 85 130 73 96 c 1
 88 96 102 95 114 94 c 1
 114 295 l 1
 114 355 l 1
 94 375 l 1
EndSplineSet
EndChar
StartChar: rrotunda
Encoding: 42843 42843 96
Width: 240
Flags: W
HStem: -46 21G<115 155> 426 20G<85 125> 426 20G<85 125>
VStem: -6 252
AnchorPoint: "blwmark" 120 0 basechar 0
AnchorPoint: "abvmark" 120 500 basechar 0
LayerCount: 2
Back
SplineSet
200 40 m 25
 160 0 l 1
 80 220 l 25
 160 300 l 1
 80 400 l 1
 40 360 l 1049
EndSplineSet
Fore
SplineSet
225 86 m 1xd0
 246 65 l 1
 135 -46 l 1
 114 -25 l 1
 34 195 l 1
 114 275 l 1
 53 352 l 1
 15 314 l 1
 -6 335 l 1
 105 446 l 1
 126 425 l 1
 206 325 l 1
 126 245 l 1
 195 56 l 1
 225 86 l 1xd0
EndSplineSet
EndChar
StartChar: vslash
Encoding: 42847 42847 873
Width: 320
Flags: W
HStem: -46 21G<115 155> 426 170G<65 105 248.282 289> 426 20G<65 105>
VStem: 34 92<70.6892 143 185 235 277 355> 154 92<430.36 498.381> 194 92<105 303 345 385.86>
LayerCount: 2
Back
SplineSet
100 360 m 25
 60 400 l 1049
80 380 m 25
 80 80 l 1
 160 0 l 25
 240 80 l 1
 240 380 l 17
 240 380 200 423 200 472 c 8
 200 507 244 550 244 550 c 1033
180 310 m 25
 20 150 l 1049
EndSplineSet
Fore
SplineSet
34 143 m 1xd4
 -5 104 l 1
 -26 125 l 1
 34 185 l 1
 34 355 l 1
 14 375 l 1
 85 446 l 1xb4
 105 426 l 1
 126 405 l 1
 146 385 l 1
 126 365 l 1
 126 277 l 1
 194 345 l 1
 194 355 l 1xd4
 194 355 154 398 154 447 c 0
 154 480 194 521 198 525 c 2
 268 596 l 2
 269 596 l 1
 290 575 l 1
 283 567 246 529 246 497 c 0xd8
 246 448 286 405 286 405 c 1
 286 105 l 1
 135 -46 l 1
 34 55 l 1
 34 143 l 1xd4
194 303 m 1
 126 235 l 1
 126 105 l 2
 126 73 168 63 185 46 c 1
 194 55 l 1
 194 303 l 1
EndSplineSet
EndChar
StartChar: zvisigoth
Encoding: 42851 42851 839
Width: 280
Flags: W
HStem: -196 92<33 93.5> 426 20G<165 205> 426 20G<165 205>
VStem: 34 92<233 295> 154 92<-150.779 -34>
AnchorPoint: "abvmark" 160 500 basechar 0
LayerCount: 2
Back
SplineSet
240 320 m 9
 160 400 l 25
 80 320 l 1
 80 200 l 25
 160 150 l 29
 80 70 l 5
 200 0 l 1
 200 -150 l 1
 200 -150 162 -200 140 -200 c 0
 114 -200 97 -150 60 -150 c 16
 30 -150 0 -200 0 -200 c 1025
EndSplineSet
Fore
SplineSet
286 345 m 1xd8
 215 274 l 1
 135 354 l 1
 126 345 l 1
 126 233 l 1
 185 196 l 1
 206 175 l 1
 132 100 l 1
 225 46 l 1
 246 25 l 1
 246 -125 l 1
 246 -125 236 -139 223 -152 c 2
 152 -223 l 2
 140 -235 126 -246 115 -246 c 0
 105 -246 98 -240 89 -231 c 2
 69 -211 l 2
 59 -202 49 -196 35 -196 c 0
 31 -196 26 -197 22 -199 c 2
 -25 -246 l 1
 -46 -225 l 1
 -46 -225 -36 -209 -22 -195 c 2
 48 -124 l 2
 59 -113 72 -104 85 -104 c 0
 102 -104 114 -114 125 -125 c 0
 126 -126 l 2
 144 -144 l 2
 147 -147 151 -149 154 -151 c 2
 154 -34 l 1
 55 24 l 1
 34 45 l 1
 109 120 l 1
 55 154 l 1
 34 175 l 1
 34 295 l 1
 185 446 l 1
 286 345 l 1xd8
EndSplineSet
EndChar
StartChar: vend
Encoding: 42857 42857 876
Width: 320
Flags: W
HStem: -196 21G<35 75> 426 20G<65 105 205 245> 426 20G<65 105 205 245>
VStem: 34 92<-125 -77 -35 15 57 355> 194 92<175 356.953>
AnchorPoint: "abvmark" 160 500 basechar 0
LayerCount: 2
Back
SplineSet
40 -50 m 9
 240 150 l 1
 240 360 l 25
 200 400 l 1025
60 400 m 25
 100 360 l 1049
80 380 m 1
 80 -150 l 1025
EndSplineSet
Fore
SplineSet
105 426 m 1xd8
 126 405 l 1
 146 385 l 1
 126 365 l 1
 126 57 l 1
 194 125 l 1
 194 335 l 2
 194 344 180 349 175 354 c 2
 154 375 l 1
 225 446 l 1
 286 385 l 1
 286 175 l 1
 126 15 l 1
 126 -125 l 1
 55 -196 l 1
 34 -175 l 1
 34 -77 l 1
 15 -96 l 1
 -6 -75 l 1
 34 -35 l 1
 34 355 l 1
 14 375 l 1
 85 446 l 1
 105 426 l 1xd8
EndSplineSet
EndChar
StartChar: is
Encoding: 42861 42861 957
Width: 360
Flags: W
HStem: -196 92<-67 -8.5>
VStem: 54 92<-151.691 83 133 182 232 545> 214 92<355 545>
LayerCount: 2
Back
SplineSet
-100 -200 m 17
 -100 -200 -70 -150 -40 -150 c 8
 -3 -150 3 -200 40 -200 c 24
 70 -200 100 -150 100 -150 c 1
 100 570 l 1
 180 650 l 25
 260 570 l 25
 260 330 l 25
 0 50 l 1049
EndSplineSet
Fore
SplineSet
146 232 m 1
 214 305 l 1
 214 545 l 1
 155 604 l 1
 146 595 l 1
 146 232 l 1
-125 -246 m 1
 -146 -225 l 1
 -146 -225 -136 -209 -122 -195 c 2
 -52 -124 l 2
 -51 -123 l 0
 -40 -112 -28 -104 -15 -104 c 0
 -2 -104 7 -110 15 -118 c 2
 36 -139 l 2
 37 -140 l 0
 39 -142 42 -145 44 -147 c 0
 47 -149 51 -151 54 -152 c 2
 54 83 l 1
 46 75 l 1
 -25 4 l 1
 -46 25 l 1
 54 133 l 1
 54 545 l 1
 205 696 l 1
 306 595 l 1
 306 355 l 1
 146 182 l 1
 146 -125 l 1
 146 -125 136 -141 122 -155 c 2
 52 -226 l 2
 41 -237 28 -246 15 -246 c 0
 2 -246 -7 -240 -15 -232 c 2
 -36 -211 l 2
 -39 -208 -42 -206 -44 -203 c 0
 -50 -199 -57 -196 -65 -196 c 0
 -69 -196 -73 -197 -78 -199 c 2
 -125 -246 l 1
EndSplineSet
EndChar
StartChar: mum
Encoding: 42867 42867 587
Width: 660
Flags: W
HStem: -196 21G<375 415> -46 21G<55 95 215 255 375 415.513 532.5 544> 426 20G<65 105 185 225 345 385> 426 20G<65 105 185 225 345 385>
VStem: 34 92<45 325> 194 92<45 325> 354 92<47 342.1> 494 92<77 167>
LayerCount: 2
Back
SplineSet
400 20 m 1
 400 340 l 25
 340 400 l 1
 240 300 l 1041
220 40 m 9
 260 0 l 1041
240 20 m 1
 240 340 l 25
 180 400 l 1
 80 300 l 1041
60 40 m 9
 100 0 l 1041
100 360 m 9
 60 400 l 1041
80 380 m 9
 80 20 l 1025
500 225 m 1
 540 200 l 1
 540 200 540 139 540 100 c 27
 540 3 420 -150 420 -150 c 1025
620 50 m 17
 620 50 605 0 560 0 c 3
 485 0 460 40 460 40 c 9
 420 0 l 25
 380 40 l 1025
EndSplineSet
Fore
SplineSet
645 96 m 1xef
 666 75 l 1
 666 75 661 57 646 42 c 2
 575 -29 l 2
 566 -38 553 -46 535 -46 c 0
 530 -46 526 -45 521 -45 c 1
 493 -91 466 -125 466 -125 c 2
 395 -196 l 1
 374 -175 l 1
 374 -175 428 -105 464 -30 c 1
 454 -24 447 -19 442 -14 c 2
 435 -7 l 1
 395 -46 l 1
 375 -26 l 1
 354 -5 l 1
 334 15 l 1
 354 35 l 1
 354 315 l 2
 354 335 326 343 315 354 c 1
 286 325 l 1
 286 45 l 1
 306 25 l 1
 235 -46 l 1
 215 -26 l 1
 194 -5 l 1
 174 15 l 1
 194 35 l 1
 194 275 l 1
 194 315 l 2
 194 335 166 343 155 354 c 1
 126 325 l 1
 126 45 l 1
 146 25 l 1
 75 -46 l 1
 55 -26 l 1
 34 -5 l 1
 14 15 l 1
 34 35 l 1
 34 275 l 1
 34 355 l 1
 14 375 l 1
 85 446 l 1
 105 426 l 1
 126 405 l 1
 145 386 l 1
 205 446 l 1
 285 366 l 1
 365 446 l 1
 446 365 l 1
 446 47 l 1
 485 86 l 1
 494 77 l 1
 494 167 l 1
 475 179 l 1
 454 200 l 1
 525 271 l 1
 565 246 l 1
 586 225 l 1
 586 125 l 2
 586 101 579 74 568 47 c 1
 573 47 579 46 585 46 c 0
 589 46 591 46 596 47 c 2
 645 96 l 1xef
EndSplineSet
EndChar
StartChar: rum
Encoding: 42869 42869 704
Width: 360
Flags: W
HStem: -196 21G<75 96> -46 21G<55 95> 426 20G<65 105 165 194 325 365> 426 20G<65 105 165 194 205 257 325 365>
VStem: 34 92<45 345> 194 92<80.5685 318.903 437 467>
LayerCount: 2
Back
SplineSet
200 525 m 1
 240 500 l 1
 240 500 240 406 240 250 c 3
 240 -37 120 -150 120 -150 c 1025
320 400 m 17
 320 400 305 350 260 350 c 3
 185 350 160 400 160 400 c 9
 80 320 l 1025
60 40 m 25
 100 0 l 1049
60 400 m 25
 100 360 l 1049
80 380 m 9
 80 20 l 1025
EndSplineSet
Fore
SplineSet
14 375 m 1xec
 85 446 l 1
 105 426 l 1
 126 405 l 1
 135 396 l 1
 185 446 l 1
 194 437 l 1
 194 467 l 1
 175 479 l 1
 154 500 l 1
 225 571 l 1
 265 546 l 1
 286 525 l 1
 286 396 l 2
 289 396 292 396 296 397 c 2
 345 446 l 1
 366 425 l 1
 366 425 361 407 346 392 c 2
 286 332 l 1
 286 275 l 2
 286 1 177 -115 167 -125 c 2
 96 -195 l 1
 95 -196 l 2
 74 -175 l 1
 76 -173 l 2
 90 -158 194 -42 194 225 c 2
 194 310 l 1
 173 316 158 327 149 336 c 2
 133 352 l 1
 126 345 l 1
 126 45 l 1
 146 25 l 1
 75 -46 l 1
 55 -26 l 1
 14 15 l 1
 34 35 l 1
 34 295 l 1
 34 355 l 1
 14 375 l 1xec
EndSplineSet
EndChar
StartChar: tum
Encoding: 42871 42871 728
Width: 480
Flags: W
HStem: -196 21G<195 216> -46 21G<95 135> 304 92<147.932 314> 426 170G<105 145 325 377 447 485> 426 20G<447 485>
VStem: 54 92<46.2344 314 435 525> 314 92<80.5685 308 409 467>
LayerCount: 2
Back
SplineSet
40 400 m 1049,0,-1
100 550 m 1,2,-1
 100 40 l 1,3,-1
 140 0 l 1,4,-1
 220 80 l 1025
320 525 m 1,0,-1
 360 500 l 1,1,2
 360 500 360 406 360 250 c 3,3,4
 360 -37 240 -150 240 -150 c 1025
440 400 m 1,6,7
 440 400 414 350 280 350 c 3,8,9
 138 350 40 400 40 400 c 1025,10,-1
EndSplineSet
Fore
SplineSet
465 446 m 1xee
 486 425 l 1
 486 425 484 421 479 416 c 2
 408 345 l 2
 407 344 407 344 406 343 c 2
 406 275 l 2
 406 1 297 -115 287 -125 c 2
 216 -195 l 1
 215 -196 l 2
 194 -175 l 1
 196 -173 l 2
 210 -158 314 -42 314 225 c 2
 314 308 l 1
 297 306 278 304 255 304 c 0
 215 304 178 308 146 314 c 1
 146 65 l 2
 146 56 160 51 165 46 c 1
 245 126 l 1
 266 105 l 1
 115 -46 l 1
 54 15 l 1
 54 338 l 1
 29 347 15 354 15 354 c 2
 -6 375 l 1
 54 435 l 1
 54 525 l 1
 125 596 l 1xf6
 146 575 l 1
 146 417 l 1
 187 406 242 396 305 396 c 0
 308 396 311 396 314 396 c 2
 314 467 l 1
 295 479 l 1
 274 500 l 1
 345 571 l 1
 385 546 l 1
 406 525 l 1
 406 409 l 1
 425 415 438 422 447 429 c 2
 465 446 l 1xee
EndSplineSet
EndChar
StartChar: thorn_longs
Encoding: 59188 59188 884
Width: 320
Flags: W
HStem: -196 92<-67 -8.5> -46 21G<-5 24> 426 20G<165 205> 426 20G<165 205> 564 92<206 272.5>
VStem: 54 92<-151.691 -35 61.7117 275 315 346 407 545> 194 92<105 328.955>
LayerCount: 2
Back
SplineSet
-100 -200 m 17
 -100 -200 -70 -150 -40 -150 c 8
 -3 -150 3 -200 40 -200 c 24
 70 -200 100 -150 100 -150 c 1
 100 570 l 1
 180 650 l 21
 180 650 212 610 240 610 c 28
 268 610 300 650 301 650 c 1033
40 0 m 1
 40 0 77 40 100 40 c 0
 123 40 160 0 160 0 c 9
 240 80 l 1
 240 320 l 25
 160 400 l 1
 80 320 l 1049
EndSplineSet
Fore
SplineSet
15 -46 m 1xee
 -6 -25 l 1
 -6 -25 -4 -23 -1 -20 c 2
 54 35 l 1
 54 275 l 1
 34 295 l 1
 54 315 l 1
 54 545 l 1
 205 696 l 1
 226 675 l 1
 227 674 l 0
 238 664 252 656 265 656 c 0
 280 656 297 668 308 678 c 2
 325 696 l 2
 326 696 l 2
 347 675 l 1
 345 672 l 2
 343 670 341 668 338 665 c 2
 337 664 l 2
 266 594 l 2
 254 582 234 564 215 564 c 0
 197 564 179 580 167 592 c 0
 155 604 l 1
 146 595 l 1
 146 407 l 1
 185 446 l 1
 286 345 l 1
 286 105 l 1
 146 -35 l 1
 146 -125 l 1
 146 -125 136 -141 122 -155 c 2
 52 -226 l 2
 41 -237 28 -246 15 -246 c 0
 2 -246 -7 -240 -15 -232 c 2
 -36 -211 l 2
 -39 -208 -42 -206 -44 -203 c 0
 -50 -199 -57 -196 -65 -196 c 0
 -69 -196 -73 -197 -78 -199 c 2
 -125 -246 l 1
 -146 -225 l 1
 -146 -225 -136 -209 -122 -195 c 2
 -52 -124 l 2
 -51 -123 l 0
 -40 -112 -28 -104 -15 -104 c 0
 -2 -104 7 -110 15 -118 c 2
 36 -139 l 2
 37 -140 l 0
 39 -142 42 -145 44 -147 c 0
 47 -149 51 -151 54 -152 c 2
 54 -13 l 1
 43 -19 32 -30 24 -37 c 2
 15 -46 l 1xee
146 78 m 1
 160 70 173 57 180 50 c 2
 185 46 l 1
 194 55 l 1
 194 295 l 2
 194 321 166 333 146 346 c 1
 146 78 l 1
EndSplineSet
LCarets2: 1 160 
Ligature2: "Historic ligatures-1" thorn longs
EndChar
StartChar: q_rrotunda
Encoding: 59571 59571 965
Width: 480
Flags: W
HStem: -196 21G<195 235> -46 21G<115 155 355 395> 426 20G<165 205 245 285 325 365> 426 20G<165 205 245 285 325 365>
VStem: 34 92<105 295> 194 92<-125 13 55 162 207 330>
LayerCount: 2
Back
SplineSet
240 80 m 9
 160 0 l 25
 80 80 l 25
 80 320 l 25
 160 400 l 1
 160 400 180 368 200 368 c 24
 220 368 240 400 240 400 c 9
 240 -150 l 1049
440 40 m 25
 400 0 l 1
 320 220 l 25
 400 300 l 1
 320 400 l 1
 280 360 l 1049
EndSplineSet
Fore
SplineSet
465 86 m 1xec
 486 65 l 1
 375 -46 l 1
 354 -25 l 1
 286 162 l 1
 286 -125 l 1
 215 -196 l 1
 194 -175 l 1
 194 13 l 1
 135 -46 l 1
 34 55 l 1
 34 295 l 1
 185 446 l 1
 206 425 l 1
 206 425 208 422 210 419 c 0
 215 416 220 414 225 414 c 0
 229 414 233 416 236 417 c 2
 265 446 l 1
 286 425 l 1
 286 387 l 1
 345 446 l 1
 366 425 l 1
 446 325 l 1
 366 245 l 1
 435 56 l 1
 465 86 l 1xec
194 55 m 1
 194 330 l 1
 188 325 182 322 175 322 c 0
 166 322 157 328 150 335 c 0
 150 336 l 2
 133 352 l 1
 126 345 l 1
 126 105 l 1
 185 46 l 1
 194 55 l 1
286 207 m 1
 354 275 l 1
 293 352 l 1
 286 345 l 1
 286 207 l 1
EndSplineSet
LCarets2: 1 280 
Ligature2: "Ligatures-1" q rrotunda
EndChar
StartChar: q_etfin
Encoding: 59583 59583 966
Width: 480
Flags: W
HStem: -46 21G<115 155> 426 20G<165 205 245 285 305 345> 426 20G<165 205 245 285 305 345>
VStem: 34 92<105 295> 194 92<-105 13 55 114 207 330> 354 92<-15 68>
CounterMasks: 1 1c
LayerCount: 2
Back
SplineSet
240 80 m 9
 160 0 l 25
 80 80 l 25
 80 320 l 25
 160 400 l 1
 160 400 180 368 200 368 c 24
 220 368 240 400 240 400 c 9
 240 -150 l 1049
240 340 m 25
 300 400 l 1
 400 300 l 1
 280 180 l 1
 400 100 l 1
 400 -40 l 1
 200 -200 l 1025
EndSplineSet
Fore
SplineSet
194 13 m 1xdc
 135 -46 l 1
 34 55 l 1
 34 295 l 1
 185 446 l 1
 206 425 l 1
 206 425 208 422 210 419 c 0
 215 416 220 414 225 414 c 0
 229 414 233 416 236 417 c 2
 265 446 l 1
 286 425 l 1
 286 407 l 1
 325 446 l 1
 446 325 l 1
 330 209 l 1
 425 146 l 1
 446 125 l 1
 446 -15 l 1
 375 -86 l 1
 175 -246 l 1
 154 -225 l 1
 199 -180 l 1
 194 -175 l 1
 194 13 l 1xdc
194 315 m 1
 194 330 l 1
 188 325 182 322 175 322 c 0
 166 322 157 328 150 335 c 0
 150 336 l 2
 133 352 l 1
 126 345 l 1
 126 105 l 1
 185 46 l 1
 194 55 l 1
 194 315 l 1
286 -105 m 1
 354 -51 l 1
 354 68 l 1
 286 114 l 1
 286 -105 l 1
286 207 m 1
 354 275 l 1
 286 343 l 1
 286 207 l 1
EndSplineSet
LCarets2: 1 240 
Ligature2: "Ligatures-1" q etfin
EndChar
StartChar: longs_p
Encoding: 60325 60325 709
Width: 520
Flags: W
HStem: -196 92<-67 -8.5> -46 21G<155 184 326 355> 426 20G<365 405> 426 20G<365 405> 564 92<233.062 298>
VStem: 54 92<-151.691 545> 234 92<-125 -40 67.7437 345> 394 92<105 329.311>
LayerCount: 2
Back
SplineSet
200 0 m 1
 200 0 237 40 260 40 c 11
 302 40 360 0 360 0 c 9
 440 80 l 1
 440 320 l 25
 360 400 l 1
 280 320 l 1049
280 380 m 1
 280 -150 l 1025
-100 -200 m 17
 -100 -200 -70 -150 -40 -150 c 8
 -3 -150 3 -200 40 -200 c 24
 70 -200 100 -150 100 -150 c 1
 100 570 l 1
 180 650 l 17
 180 650 216 610 320 610 c 3
 348 610 381 650 381 650 c 9
 240 420 l 9
 300 360 l 1025
EndSplineSet
Fore
SplineSet
-125 -246 m 1xef
 -146 -225 l 1
 -146 -225 -136 -209 -122 -195 c 2
 -52 -124 l 2
 -51 -123 l 0
 -40 -112 -28 -104 -15 -104 c 0
 -2 -104 7 -110 15 -118 c 2
 36 -139 l 2
 37 -140 l 0
 39 -142 42 -145 44 -147 c 0
 47 -149 51 -151 54 -152 c 2
 54 545 l 1
 205 696 l 1
 206 695 l 2
 213 688 252 656 345 656 c 0
 359 656 374 666 386 676 c 2
 406 696 l 1
 427 675 l 1
 286 445 l 2
 282 438 291 429 301 422 c 1
 305 426 l 1xdf
 325 406 l 1
 326 405 l 1
 335 396 l 1
 385 446 l 1
 486 345 l 1
 486 105 l 1
 335 -46 l 1
 335 -46 332 -44 326 -40 c 1
 326 -125 l 1
 255 -196 l 1
 234 -175 l 1
 234 -6 l 1
 218 -7 197 -25 184 -37 c 2
 175 -46 l 1
 154 -25 l 1
 154 -25 156 -23 159 -20 c 2
 229 51 l 2
 230 52 232 53 234 55 c 2
 234 295 l 1
 234 355 l 1
 194 395 l 1
 298 564 l 2
 297 564 296 564 295 564 c 0
 198 564 161 598 156 603 c 2
 155 604 l 1
 146 595 l 1
 146 -125 l 1
 146 -125 136 -141 122 -155 c 2
 52 -226 l 2
 41 -237 28 -246 15 -246 c 0
 2 -246 -7 -240 -15 -232 c 2
 -36 -211 l 2
 -39 -208 -42 -206 -44 -203 c 0
 -50 -199 -57 -196 -65 -196 c 0
 -69 -196 -73 -197 -78 -199 c 2
 -125 -246 l 1xef
326 345 m 1
 326 77 l 1
 357 65 385 46 385 46 c 1
 385 46 392 53 394 55 c 2
 394 295 l 2
 394 327 352 337 335 354 c 1
 326 345 l 1
EndSplineSet
LCarets2: 1 240 
Ligature2: "Ligatures-1" longs p
EndChar
StartChar: b_b
Encoding: 61122 61122 349
Width: 480
GlyphClass: 3
Flags: W
HStem: -46 21G<115 155 275 315> 426 20G<165 194 325 365> 426 20G<165 194 325 365> 651 20G<65 105 225 264.355>
VStem: 34 92<70.6892 345 387 580> 194 92<70.6892 329.311 437 580> 354 92<105 329.311>
CounterMasks: 1 0e
LayerCount: 2
Back
SplineSet
220 625 m 25
 260 585 l 1049
240 605 m 9
 240 80 l 25
 320 0 l 25
 400 80 l 25
 400 320 l 25
 320 400 l 1
 240 320 l 1049
60 625 m 25
 100 585 l 1049
80 605 m 9
 80 80 l 25
 160 0 l 25
 240 80 l 25
 240 320 l 25
 160 400 l 1
 80 320 l 1049
EndSplineSet
Fore
SplineSet
126 345 m 1x9e
 126 105 l 2
 126 73 168 63 185 46 c 1
 194 55 l 1
 194 295 l 2
 194 327 152 337 135 354 c 1
 126 345 l 1x9e
126 387 m 1
 185 446 l 1
 194 437 l 1
 194 580 l 1
 174 600 l 1
 245 671 l 1
 275 640 l 1
 286 630 l 1
 306 610 l 1
 286 590 l 1
 286 387 l 1
 345 446 l 1xde
 446 345 l 1
 446 105 l 1
 295 -46 l 1
 215 34 l 1
 135 -46 l 1
 34 55 l 1
 34 580 l 1
 14 600 l 1
 85 671 l 1
 105 651 l 1
 126 630 l 1
 146 610 l 1
 126 590 l 1
 126 387 l 1
286 345 m 1
 286 105 l 2
 286 73 328 63 345 46 c 1
 354 55 l 1
 354 295 l 2
 354 327 312 337 295 354 c 1
 286 345 l 1
EndSplineSet
LCarets2: 1 240 
Ligature2: "Historic ligatures-1" b b
EndChar
StartChar: c_t
Encoding: 61125 61125 335
Width: 540
Flags: W
HStem: -46 21G<115 155 375 415> 304 92<234.862 334> 426 20G<165 244.6 497 525> 446 130G<165 244.6 385 425 497 525>
VStem: 34 92<105 275> 334 92<46.2344 306 405 525>
LayerCount: 2
Back
SplineSet
240 80 m 9
 160 0 l 25
 80 80 l 25
 80 300 l 1
 160 400 l 17
 160 400 217 350 320 350 c 3
 442 350 480 400 480 400 c 1033
380 550 m 1
 380 40 l 1
 420 0 l 1
 500 80 l 1025
EndSplineSet
Fore
SplineSet
405 596 m 1xec
 426 575 l 1
 426 405 l 1
 465 415 487 429 497 438 c 2
 505 446 l 1
 526 425 l 1
 526 425 525 423 523 421 c 2
 452 350 l 2
 448 346 440 340 426 332 c 1
 426 65 l 2
 426 56 440 51 445 46 c 1
 525 126 l 1
 546 105 l 1
 395 -46 l 1
 334 15 l 1
 334 306 l 1
 322 305 309 304 295 304 c 0
 216 304 164 333 144 347 c 1
 126 325 l 1
 126 105 l 1
 185 46 l 1
 265 126 l 1
 286 105 l 1
 135 -46 l 1
 34 55 l 1
 34 275 l 1
 114 375 l 1
 185 446 l 1
 185 446 238 399 334 396 c 1
 334 525 l 1
 405 596 l 1xec
EndSplineSet
LCarets2: 1 280 
Ligature2: "Ligatures-1" c t
EndChar
StartChar: e_y
Encoding: 61127 61127 351
Width: 480
GlyphClass: 3
Flags: W
HStem: -196 92<233 291.5> -46 21G<115 155 275 315> 426 20G<165 205 385 425> 426 20G<165 205 385 425>
VStem: 34 92<105 145 187 295> 194 92<105 213 255 295> 354 92<-151.691 13 55 355>
CounterMasks: 1 0e
LayerCount: 2
Back
SplineSet
240 80 m 9
 160 0 l 25
 80 80 l 25
 80 320 l 25
 160 400 l 25
 240 320 l 1
 240 280 l 1
 80 120 l 1033
420 360 m 25
 380 400 l 1049
200 -200 m 17
 200 -200 230 -150 260 -150 c 8
 297 -150 303 -200 340 -200 c 24
 370 -200 400 -150 400 -150 c 1
 400 380 l 1025
400 80 m 9
 320 0 l 25
 240 80 l 1
 240 320 l 1049
EndSplineSet
Fore
SplineSet
175 -246 m 1xee
 154 -225 l 1
 154 -225 164 -209 178 -195 c 2
 248 -124 l 2
 249 -123 l 0
 260 -112 272 -104 285 -104 c 0
 298 -104 307 -110 315 -118 c 2
 336 -139 l 2
 337 -140 l 0
 339 -142 342 -145 344 -147 c 0
 347 -149 351 -151 354 -152 c 2
 354 13 l 1
 295 -46 l 1
 215 34 l 1
 135 -46 l 1
 34 55 l 1
 34 295 l 1
 185 446 l 1
 265 366 l 1
 286 345 l 1
 286 305 l 1
 286 105 l 1
 345 46 l 1
 354 55 l 1
 354 355 l 1
 334 375 l 1
 405 446 l 1
 425 426 l 1
 435 415 l 1
 466 385 l 1
 446 365 l 1
 446 105 l 1
 446 -125 l 1
 446 -125 436 -141 422 -155 c 2
 352 -226 l 2
 341 -237 328 -246 315 -246 c 0
 302 -246 293 -240 285 -232 c 2
 264 -211 l 2
 261 -208 258 -206 256 -203 c 0
 250 -199 243 -196 235 -196 c 0
 231 -196 227 -197 222 -199 c 2
 175 -246 l 1xee
126 145 m 1
 126 105 l 1
 185 46 l 1
 194 55 l 1
 194 213 l 1
 126 145 l 1
194 295 m 1
 135 354 l 1
 126 345 l 1
 126 187 l 1
 194 255 l 1
 194 295 l 1
EndSplineSet
LCarets2: 1 240 
Ligature2: "Historic ligatures-1" e y
EndChar
StartChar: f_r
Encoding: 61130 61130 352
Width: 440
GlyphClass: 3
Flags: W
HStem: -196 92<-67 -8.5> -46 21G<255 295> 354 92<146 234> 426 20G<365 405> 564 92<206 272.5>
VStem: 54 92<-151.691 354 446 545> 234 92<45 345>
LayerCount: 2
Back
SplineSet
-100 -200 m 1
 -100 -200 -70 -150 -40 -150 c 8
 -3 -150 3 -200 40 -200 c 24
 70 -200 100 -150 100 -150 c 1
 100 570 l 1
 180 650 l 17
 180 650 212 610 240 610 c 24
 268 610 300 650 301 650 c 1025
40 400 m 1
 260 400 l 25
 300 360 l 1025
400 360 m 25
 360 400 l 25
 280 320 l 1049
260 40 m 25
 300 0 l 1049
280 380 m 9
 280 20 l 1025
EndSplineSet
Fore
SplineSet
446 385 m 1xde
 375 314 l 1
 335 354 l 1
 326 345 l 1
 326 45 l 1
 346 25 l 1
 275 -46 l 1
 255 -26 l 1
 234 -5 l 1
 214 15 l 1
 234 35 l 1
 234 295 l 1
 234 354 l 1
 146 354 l 1
 146 -125 l 1
 146 -125 136 -141 122 -155 c 2
 52 -226 l 2
 41 -237 28 -246 15 -246 c 0
 2 -246 -7 -240 -15 -232 c 2
 -36 -211 l 2
 -39 -208 -42 -206 -44 -203 c 0
 -50 -199 -57 -196 -65 -196 c 0
 -69 -196 -73 -197 -78 -199 c 2
 -125 -246 l 1
 -146 -225 l 1
 -146 -225 -136 -209 -122 -195 c 2
 -52 -124 l 2
 -51 -123 l 0
 -40 -112 -28 -104 -15 -104 c 0
 -2 -104 7 -110 15 -118 c 2
 36 -139 l 2
 37 -140 l 0
 39 -142 42 -145 44 -147 c 0
 47 -149 51 -151 54 -152 c 2
 54 354 l 1
 15 354 l 1
 -6 375 l 1
 54 435 l 1
 54 545 l 1
 205 696 l 1
 226 675 l 1
 227 674 l 0
 238 664 252 656 265 656 c 0
 280 656 297 668 308 678 c 2
 325 696 l 2
 326 696 l 2
 347 675 l 1
 345 672 l 2
 343 670 341 668 338 665 c 2
 337 664 l 2
 266 594 l 2
 254 582 234 564 215 564 c 0
 197 564 179 580 167 592 c 0
 155 604 l 1
 146 595 l 1
 146 446 l 1xee
 285 446 l 1
 305 426 l 1
 326 405 l 1
 335 396 l 1
 385 446 l 1
 446 385 l 1xde
EndSplineSet
LCarets2: 1 240 
Ligature2: "Ligatures-1" f r
EndChar
StartChar: f_y
Encoding: 61133 61133 353
Width: 520
GlyphClass: 3
Flags: W
HStem: -196 92<-67 -8.5 273 331.5> -46 21G<315 355> 354 92<146 234> 426 20G<425 465> 564 92<206 272.5>
VStem: 54 92<-151.691 354 446 545> 234 92<105 354> 394 92<-151.691 13 55 355>
LayerCount: 2
Back
SplineSet
460 360 m 25
 420 400 l 1049
240 -200 m 17
 240 -200 270 -150 300 -150 c 8
 337 -150 343 -200 380 -200 c 24
 410 -200 440 -150 440 -150 c 1
 440 380 l 1025
440 80 m 9
 360 0 l 25
 280 80 l 1
 280 380 l 1049
-100 -200 m 17
 -100 -200 -70 -150 -40 -150 c 8
 -3 -150 3 -200 40 -200 c 24
 70 -200 100 -150 100 -150 c 1
 100 570 l 1
 180 650 l 17
 180 650 212 610 240 610 c 24
 268 610 300 650 301 650 c 1033
40 400 m 1
 260 400 l 25
 300 360 l 1025
EndSplineSet
Fore
SplineSet
-125 -246 m 1xef
 -146 -225 l 1
 -146 -225 -136 -209 -122 -195 c 2
 -52 -124 l 2
 -51 -123 l 0
 -40 -112 -28 -104 -15 -104 c 0
 -2 -104 7 -110 15 -118 c 2
 36 -139 l 2
 37 -140 l 0
 39 -142 42 -145 44 -147 c 0
 47 -149 51 -151 54 -152 c 2
 54 354 l 1
 15 354 l 1
 -6 375 l 1
 54 435 l 1
 54 545 l 1
 205 696 l 1
 226 675 l 1
 227 674 l 0
 238 664 252 656 265 656 c 0
 280 656 297 668 308 678 c 2
 325 696 l 2
 326 696 l 2
 347 675 l 1
 345 672 l 2
 343 670 341 668 338 665 c 2
 337 664 l 2
 266 594 l 2
 254 582 234 564 215 564 c 0
 197 564 179 580 167 592 c 0
 155 604 l 1
 146 595 l 1
 146 446 l 1xef
 285 446 l 1
 305 426 l 1
 326 405 l 1
 346 385 l 1
 326 365 l 1
 326 105 l 1
 385 46 l 1
 394 55 l 1
 394 355 l 1
 374 375 l 1
 445 446 l 1
 465 426 l 1xdf
 486 405 l 1
 506 385 l 1
 486 365 l 1
 486 105 l 1
 486 -125 l 1
 486 -125 476 -141 462 -155 c 2
 392 -226 l 2
 381 -237 368 -246 355 -246 c 0
 342 -246 333 -240 325 -232 c 2
 304 -211 l 2
 301 -208 298 -206 296 -203 c 0
 290 -199 283 -196 275 -196 c 0
 271 -196 267 -197 262 -199 c 2
 215 -246 l 1
 194 -225 l 1
 194 -225 204 -209 218 -195 c 2
 288 -124 l 2
 289 -123 l 0
 300 -112 312 -104 325 -104 c 0
 338 -104 347 -110 355 -118 c 2
 376 -139 l 2
 377 -140 l 0
 379 -142 382 -145 384 -147 c 0
 387 -149 391 -151 394 -152 c 2
 394 13 l 1
 335 -46 l 1
 234 55 l 1
 234 354 l 1
 146 354 l 1
 146 -125 l 1
 146 -125 136 -141 122 -155 c 2
 52 -226 l 2
 41 -237 28 -246 15 -246 c 0
 2 -246 -7 -240 -15 -232 c 2
 -36 -211 l 2
 -39 -208 -42 -206 -44 -203 c 0
 -50 -199 -57 -196 -65 -196 c 0
 -69 -196 -73 -197 -78 -199 c 2
 -125 -246 l 1xef
EndSplineSet
LCarets2: 1 240 
Ligature2: "Ligatures-1" f y
EndChar
StartChar: f_t_y
Encoding: 61136 61136 356
Width: 680
GlyphClass: 3
Flags: W
HStem: -196 92<-67 -8.5 433 491.5> -46 21G<255 295 475 515> 354 92<146 214 306 394> 426 20G<585 625>
VStem: 54 92<-151.691 354 446 545> 214 92<46.2344 354 446 535.734> 394 92<115 354> 554 92<-151.691 13 55 355>
LayerCount: 2
Back
SplineSet
620 360 m 25
 580 400 l 1049
400 -200 m 17
 400 -200 430 -150 460 -150 c 8
 497 -150 503 -200 540 -200 c 24
 570 -200 600 -150 600 -150 c 1
 600 380 l 1025
600 80 m 9
 520 0 l 25
 440 80 l 1
 440 380 l 1049
-100 -200 m 1
 -100 -200 -70 -150 -40 -150 c 8
 -3 -150 3 -200 40 -200 c 24
 70 -200 100 -150 100 -150 c 1
 100 570 l 1
 180 650 l 1
 180 650 225 550 260 550 c 1
 260 40 l 1
 300 0 l 1
 380 80 l 1025
40 400 m 1
 420 400 l 25
 460 360 l 1025
EndSplineSet
Fore
SplineSet
-125 -246 m 1xef
 -146 -225 l 1
 -146 -225 -136 -209 -122 -195 c 2
 -52 -124 l 2
 -51 -123 l 0
 -40 -112 -28 -104 -15 -104 c 0
 -2 -104 7 -110 15 -118 c 2
 36 -139 l 2
 37 -140 l 0
 39 -142 42 -145 44 -147 c 0
 47 -149 51 -151 54 -152 c 2
 54 354 l 1
 15 354 l 1
 -6 375 l 1
 54 435 l 1
 54 545 l 1
 205 696 l 1
 226 675 l 1
 226 675 246 631 269 602 c 0
 275 598 280 596 285 596 c 2
 306 575 l 1
 306 446 l 1xef
 445 446 l 1
 465 426 l 1
 486 405 l 1
 506 385 l 1
 486 365 l 1
 486 105 l 1
 545 46 l 1
 554 55 l 1
 554 355 l 1
 534 375 l 1
 605 446 l 1
 625 426 l 1xdf
 646 405 l 1
 666 385 l 1
 646 365 l 1
 646 105 l 1
 646 -125 l 1
 646 -125 636 -141 622 -155 c 2
 552 -226 l 2
 541 -237 528 -246 515 -246 c 0
 502 -246 493 -240 485 -232 c 2
 464 -211 l 2
 461 -208 458 -206 456 -203 c 0
 450 -199 443 -196 435 -196 c 0
 431 -196 427 -197 422 -199 c 2
 375 -246 l 1
 354 -225 l 1
 354 -225 364 -209 378 -195 c 2
 448 -124 l 2
 449 -123 l 0
 460 -112 472 -104 485 -104 c 0
 498 -104 507 -110 515 -118 c 2
 536 -139 l 2
 537 -140 l 0
 539 -142 542 -145 544 -147 c 0
 547 -149 551 -151 554 -152 c 2
 554 13 l 1
 495 -46 l 1
 394 55 l 1
 394 73 l 1
 275 -46 l 1
 214 15 l 1
 214 354 l 1
 146 354 l 1
 146 -125 l 1
 146 -125 136 -141 122 -155 c 2
 52 -226 l 2
 41 -237 28 -246 15 -246 c 0
 2 -246 -7 -240 -15 -232 c 2
 -36 -211 l 2
 -39 -208 -42 -206 -44 -203 c 0
 -50 -199 -57 -196 -65 -196 c 0
 -69 -196 -73 -197 -78 -199 c 2
 -125 -246 l 1xef
146 446 m 1
 214 446 l 1
 214 514 l 2
 212 515 211 517 209 519 c 2
 188 540 l 2
 173 555 158 578 148 597 c 1
 146 595 l 1
 146 446 l 1
306 354 m 1
 306 65 l 2
 306 56 320 51 325 46 c 1
 394 115 l 1
 394 354 l 1
 306 354 l 1
EndSplineSet
LCarets2: 2 240 400 
Ligature2: "Ligatures-1" f t y
EndChar
StartChar: g_d
Encoding: 61138 61138 498
Width: 320
Flags: W
HStem: -196 92<73 131.5> -46 21G<115 155> 426 20G<165 193> 426 20G<165 193> 504 92<129.709 171.437>
VStem: 34 92<70.6892 295 569 631.5> 194 92<-151.691 13 55 330>
LayerCount: 2
Back
SplineSet
240 400 m 1
 240 450 l 2
 240 505 195 550 160 550 c 0
 125 550 80 563 80 600 c 27
 80 623 100 630 113 650 c 1049
40 -200 m 17
 40 -200 70 -150 100 -150 c 8
 137 -150 143 -200 180 -200 c 24
 210 -200 240 -150 240 -150 c 9
 240 400 l 1
 240 400 220 368 200 368 c 24
 180 368 160 400 160 400 c 1
 80 320 l 25
 80 80 l 25
 160 0 l 25
 240 80 l 1041
EndSplineSet
Fore
SplineSet
194 330 m 1xce
 188 325 182 322 175 322 c 0
 166 322 157 329 150 336 c 2
 133 352 l 1
 126 345 l 1
 126 105 l 2
 126 73 168 63 185 46 c 1
 194 55 l 1
 194 330 l 1xce
194 13 m 1
 135 -46 l 1
 34 55 l 1
 34 295 l 1
 185 446 l 1xee
 193 437 l 1
 191 457 183 476 172 490 c 1
 160 499 147 504 135 504 c 0
 111 504 83 510 67 526 c 2
 46 547 l 2
 39 554 34 563 34 575 c 0
 34 589 42 597 50 605 c 2
 56 612 l 2
 60 616 64 620 67 625 c 2
 138 696 l 1
 159 675 l 1
 155 669 151 665 146 660 c 0
 146 659 l 2
 139 653 l 2
 132 646 126 638 126 625 c 0
 126 619 127 613 129 608 c 0
 144 600 167 596 185 596 c 0
 200 596 217 587 232 573 c 0
 233 572 l 1
 254 551 l 2
 272 533 286 506 286 475 c 2
 286 425 l 1
 286 -125 l 1
 286 -125 276 -141 262 -155 c 2
 192 -226 l 2
 181 -237 168 -246 155 -246 c 0
 142 -246 133 -240 125 -232 c 2
 104 -211 l 2
 101 -208 98 -206 96 -203 c 0
 90 -199 83 -196 75 -196 c 0
 71 -196 67 -197 62 -199 c 2
 15 -246 l 1
 -6 -225 l 1
 -6 -225 4 -209 18 -195 c 2
 88 -124 l 2
 89 -123 l 0
 100 -112 112 -104 125 -104 c 0
 138 -104 147 -110 155 -118 c 2
 176 -139 l 2
 177 -140 l 0
 179 -142 182 -145 184 -147 c 0
 187 -149 191 -151 194 -152 c 2
 194 13 l 1
EndSplineSet
LCarets2: 1 160 
Ligature2: "Historic ligatures-1" g d
EndChar
StartChar: t_t
Encoding: 61145 61145 730
Width: 420
Flags: W
HStem: -46 21G<95 135 255 295> 354 92<146 214 306 335> 576 20G<105 145 265 305>
VStem: 54 92<46.2344 354 446 525> 214 92<95 354 446 525>
LayerCount: 2
Back
SplineSet
260 550 m 1
 260 40 l 1
 300 0 l 1
 380 80 l 1025
40 400 m 1
 360 400 l 1041
100 550 m 1
 100 40 l 1
 140 0 l 1
 220 80 l 1025
EndSplineSet
Fore
SplineSet
125 596 m 1
 146 575 l 1
 146 446 l 1
 214 446 l 1
 214 525 l 1
 285 596 l 1
 306 575 l 1
 306 446 l 1
 385 446 l 1
 406 425 l 1
 335 354 l 1
 306 354 l 1
 306 65 l 2
 306 56 320 51 325 46 c 1
 405 126 l 1
 426 105 l 1
 275 -46 l 1
 214 15 l 1
 214 53 l 1
 115 -46 l 1
 54 15 l 1
 54 354 l 1
 15 354 l 1
 -6 375 l 1
 54 435 l 1
 54 525 l 1
 125 596 l 1
146 354 m 1
 146 65 l 2
 146 56 160 51 165 46 c 1
 214 95 l 1
 214 354 l 1
 146 354 l 1
EndSplineSet
LCarets2: 1 240 
Ligature2: "Ligatures-1" t t
EndChar
StartChar: t_y
Encoding: 61147 61147 731
Width: 520
Flags: W
HStem: -196 92<273 331.5> -46 21G<95 135 315 355> 354 92<146 234> 576 20G<105 145 425 465>
VStem: 54 92<46.2344 354 446 525> 234 92<115 354> 394 92<-151.691 13 55 355>
LayerCount: 2
Back
SplineSet
460 360 m 25
 420 400 l 1049
240 -200 m 17
 240 -200 270 -150 300 -150 c 8
 337 -150 343 -200 380 -200 c 24
 410 -200 440 -150 440 -150 c 1
 440 380 l 1025
440 80 m 9
 360 0 l 25
 280 80 l 1
 280 380 l 1049
100 550 m 1
 100 40 l 1
 140 0 l 1
 220 80 l 1025
40 400 m 1
 260 400 l 1
 300 360 l 1025
EndSplineSet
Fore
SplineSet
125 596 m 1
 146 575 l 1
 146 446 l 1
 285 446 l 1
 305 426 l 1
 326 405 l 1
 346 385 l 1
 326 365 l 1
 326 105 l 1
 385 46 l 1
 394 55 l 1
 394 355 l 1
 374 375 l 1
 445 446 l 1
 465 426 l 1
 486 405 l 1
 506 385 l 1
 486 365 l 1
 486 105 l 1
 486 -125 l 1
 486 -125 476 -141 462 -155 c 2
 392 -226 l 2
 381 -237 368 -246 355 -246 c 0
 342 -246 333 -240 325 -232 c 2
 304 -211 l 2
 301 -208 298 -206 296 -203 c 0
 290 -199 283 -196 275 -196 c 0
 271 -196 267 -197 262 -199 c 2
 215 -246 l 1
 194 -225 l 1
 194 -225 204 -209 218 -195 c 2
 288 -124 l 2
 289 -123 l 0
 300 -112 312 -104 325 -104 c 0
 338 -104 347 -110 355 -118 c 2
 376 -139 l 2
 377 -140 l 0
 379 -142 382 -145 384 -147 c 0
 387 -149 391 -151 394 -152 c 2
 394 13 l 1
 335 -46 l 1
 234 55 l 1
 234 73 l 1
 115 -46 l 1
 54 15 l 1
 54 354 l 1
 15 354 l 1
 -6 375 l 1
 54 435 l 1
 54 525 l 1
 125 596 l 1
146 354 m 1
 146 65 l 2
 146 56 160 51 165 46 c 1
 234 115 l 1
 234 354 l 1
 146 354 l 1
EndSplineSet
LCarets2: 1 240 
Ligature2: "Ligatures-1" t y
EndChar
StartChar: a_r
Encoding: 61354 61354 343
Width: 400
GlyphClass: 3
Flags: W
HStem: -46 21G<95 135 215 255> 426 20G<145 245 325 365> 426 20G<145 245 325 365>
VStem: 34 92<85 165> 194 92<75 179 276 334>
LayerCount: 2
Back
SplineSet
100 280 m 17
 80 340 l 1
 140 400 l 1
 240 375 l 1
 240 100 l 9
 140 0 l 1
 80 60 l 1
 80 190 l 1
 140 250 l 1
 140 250 155 225 200 225 c 3
 215 225 240 225 240 225 c 1033
300 40 m 25
 260 0 l 1
 240 20 l 1
 240 375 l 1025
360 360 m 25
 320 400 l 25
 240 320 l 1049
EndSplineSet
Fore
SplineSet
406 385 m 1xd8
 335 314 l 1
 295 354 l 1
 286 345 l 1
 286 125 l 1
 286 47 l 1
 325 86 l 1
 346 65 l 1
 235 -46 l 1
 194 -5 l 1
 194 33 l 1
 115 -46 l 1
 34 35 l 1
 34 165 l 1
 165 296 l 1
 176 285 l 2
 181 281 186 279 194 276 c 1
 194 295 l 1
 194 334 l 1
 131 350 l 1
 146 305 l 1
 75 234 l 1
 54 255 l 1
 34 315 l 1
 165 446 l 1
 265 421 l 1
 286 400 l 1
 286 387 l 1
 345 446 l 1
 406 385 l 1xd8
194 75 m 1
 194 179 l 1
 175 179 l 2
 150 179 135 187 126 193 c 1
 126 85 l 1
 165 46 l 1
 194 75 l 1
EndSplineSet
LCarets2: 1 240 
Ligature2: "Historic ligatures-1" a r
EndChar
StartChar: a_Rsmallcap
Encoding: 61355 61355 857
Width: 520
Flags: W
HStem: -46 21G<95 135 215 255 395 435> 426 20G<145 245 325 369> 426 20G<145 245 325 369>
VStem: 34 92<85 165> 194 92<75 143 167 179 276 334>
LayerCount: 2
Back
SplineSet
480 40 m 25
 440 0 l 1
 440 0 423 79 400 125 c 24
 383 159 340 200 340 200 c 1025
320 180 m 1
 440 300 l 1
 320 400 l 1
 240 320 l 1049
100 280 m 17
 80 340 l 1
 140 400 l 1
 240 375 l 1
 240 20 l 1
 260 0 l 1
 300 40 l 1049
240 100 m 25
 140 0 l 1
 80 60 l 1
 80 190 l 1
 140 250 l 1
 140 250 155 225 200 225 c 3
 215 225 240 225 240 225 c 1033
EndSplineSet
Fore
SplineSet
75 234 m 1xd8
 54 255 l 1
 34 315 l 1
 165 446 l 1
 265 421 l 1
 286 400 l 1
 286 387 l 1
 345 446 l 1
 465 346 l 1
 486 325 l 1
 386 225 l 1
 390 221 l 2
 401 210 432 177 446 150 c 0
 459 123 471 86 478 59 c 1
 505 86 l 1
 526 65 l 1
 415 -46 l 1
 394 -25 l 1
 394 -25 377 54 354 100 c 0
 345 118 328 139 315 154 c 1
 295 134 l 1
 286 143 l 1
 286 125 l 1
 286 47 l 1
 325 86 l 1
 346 65 l 1
 235 -46 l 1
 194 -5 l 1
 194 33 l 1
 115 -46 l 1
 34 35 l 1
 34 165 l 1
 165 296 l 1
 176 285 l 2
 181 282 186 279 194 276 c 1
 194 295 l 1
 194 334 l 1
 131 350 l 1
 146 305 l 1
 75 234 l 1xd8
194 179 m 1
 175 179 l 2
 150 179 135 187 126 193 c 1
 126 85 l 1
 165 46 l 1
 194 75 l 1
 194 179 l 1
286 250 m 1
 286 167 l 1
 294 175 l 1
 365 246 l 1
 392 273 l 1
 295 354 l 2
 295 354 288 347 286 345 c 2
 286 250 l 1
EndSplineSet
LCarets2: 1 240 
Ligature2: "Historic ligatures-1" a Rsmallcap
EndChar
StartChar: c_h
Encoding: 61883 61883 853
Width: 520
Flags: W
HStem: -46 21G<115 155 255 295 415.645 455> 426 20G<165 205 385 425> 426 20G<165 205 385 425> 651 20G<265 305>
VStem: 34 92<70.6892 295> 234 92<45 53 95 293 397 580> 394 92<45 342.1>
LayerCount: 2
Back
SplineSet
240 320 m 9
 160 400 l 25
 80 320 l 25
 80 80 l 25
 160 0 l 25
 240 80 l 1041
420 40 m 25
 460 0 l 1049
260 40 m 25
 300 0 l 1049
260 625 m 25
 300 585 l 1049
280 605 m 9
 280 20 l 1049
440 20 m 25
 440 340 l 25
 380 400 l 1
 280 300 l 1049
EndSplineSet
Fore
SplineSet
214 600 m 1xde
 285 671 l 1
 305 651 l 1
 326 630 l 1
 346 610 l 1
 326 590 l 1
 326 367 l 1
 405 446 l 1
 486 365 l 1
 486 45 l 1
 506 25 l 1
 435 -46 l 1
 405 -15 l 1
 394 -5 l 1
 374 15 l 1
 394 35 l 1
 394 315 l 2
 394 335 366 343 355 354 c 1
 326 325 l 1
 326 45 l 1
 346 25 l 1
 275 -46 l 1
 255 -26 l 1
 234 -5 l 1
 214 15 l 1
 234 35 l 1
 234 53 l 1
 135 -46 l 1
 34 55 l 1
 34 295 l 1
 185 446 l 1
 234 397 l 1
 234 580 l 1
 214 600 l 1xde
234 275 m 1
 234 293 l 1
 215 274 l 1
 135 354 l 1
 126 345 l 1
 126 105 l 2
 126 73 168 63 185 46 c 1
 234 95 l 1
 234 275 l 1
EndSplineSet
LCarets2: 1 240 
Ligature2: "Ligatures-1" c h
EndChar
StartChar: n.alt
Encoding: 61992 61992 598
Width: 320
Flags: W
HStem: -196 21G<155 195> -46 21G<55 95> 426 20G<65 105 185 225> 426 20G<65 105 185 225>
VStem: 34 92<45 325> 194 92<-85 342.1>
AnchorPoint: "abvmark" 160 500 basechar 0
LayerCount: 2
Back
SplineSet
60 40 m 25
 100 0 l 1049
100 360 m 25
 60 400 l 1049
80 380 m 9
 80 20 l 1025
200 -150 m 25
 240 -110 l 1
 240 340 l 9
 180 400 l 1
 80 300 l 1049
EndSplineSet
Fore
SplineSet
175 -196 m 1xec
 154 -175 l 1
 194 -135 l 1
 194 315 l 2
 194 335 166 343 155 354 c 1
 126 325 l 1
 126 45 l 1
 146 25 l 1
 75 -46 l 1
 55 -26 l 1
 14 15 l 1
 34 35 l 1
 34 275 l 1
 34 355 l 1
 14 375 l 1
 85 446 l 1
 105 426 l 1
 126 405 l 1
 145 386 l 1
 205 446 l 1
 286 365 l 1
 286 -85 l 1
 175 -196 l 1xec
EndSplineSet
EndChar
StartChar: l_l
Encoding: 62713 62713 575
Width: 320
Flags: W
HStem: -46 21G<55 95 215 255> 651 20G<65 105 225 264.355>
VStem: 34 92<47 580> 194 92<47 580>
LayerCount: 2
Back
SplineSet
220 40 m 25
 260 0 l 25
 300 40 l 1049
220 625 m 25
 260 585 l 1049
240 605 m 9
 240 20 l 1049
60 40 m 25
 100 0 l 25
 140 40 l 1049
60 625 m 25
 100 585 l 1049
80 605 m 9
 80 20 l 1049
EndSplineSet
Fore
SplineSet
105 651 m 1
 126 630 l 1
 146 610 l 1
 126 590 l 1
 126 47 l 1
 165 86 l 1
 186 65 l 1
 75 -46 l 1
 55 -26 l 1
 34 -5 l 1
 14 15 l 1
 34 35 l 1
 34 580 l 1
 14 600 l 1
 85 671 l 1
 105 651 l 1
174 600 m 1
 245 671 l 1
 275 640 l 1
 286 630 l 1
 306 610 l 1
 286 590 l 1
 286 47 l 1
 325 86 l 1
 346 65 l 1
 235 -46 l 1
 215 -26 l 1
 194 -5 l 1
 174 15 l 1
 194 35 l 1
 194 580 l 1
 174 600 l 1
EndSplineSet
LCarets2: 1 160 
Ligature2: "Ligatures-1" l l
EndChar
StartChar: longs_s
Encoding: 62717 62717 710
Width: 480
Flags: W
HStem: -196 92<-67 -8.5> -46 21G<155 195 275 315> -6 92<228.5 294> 314 92<346 411.5> 426 20G<325 365 445 485> 426 20G<325 365 445 485> 564 92<206 272.5>
VStem: 54 92<-151.691 545>
LayerCount: 2
Back
SplineSet
-100 -200 m 17
 -100 -200 -70 -150 -40 -150 c 8
 -3 -150 3 -200 40 -200 c 24
 70 -200 100 -150 100 -150 c 1
 100 570 l 1
 180 650 l 17
 180 650 212 610 240 610 c 24
 268 610 300 650 301 650 c 1033
440 400 m 17
 440 400 408 360 380 360 c 24
 352 360 320 400 320 400 c 9
 240 320 l 1
 240 240 l 1
 400 160 l 1
 400 80 l 1
 320 0 l 17
 320 0 288 40 260 40 c 24
 232 40 200 0 200 0 c 1025
EndSplineSet
Fore
SplineSet
465 446 m 1xfb
 486 425 l 1
 486 425 482 420 475 413 c 2
 404 342 l 2
 392 330 373 314 355 314 c 0
 337 314 318 330 306 342 c 2
 295 354 l 1
 286 345 l 1
 286 275 l 1
 425 206 l 1
 446 185 l 1
 446 105 l 1
 295 -46 l 1
 274 -25 l 1
 273 -24 l 0
 262 -14 248 -6 235 -6 c 0
 222 -6 209 -14 198 -23 c 2
 175 -46 l 1
 154 -25 l 2
 154 -25 157 -20 164 -13 c 2
 165 -13 l 2
 236 58 l 2
 248 70 267 86 285 86 c 0
 303 86 321 70 333 58 c 0
 345 46 l 1
 354 55 l 1
 354 125 l 1
 215 194 l 1
 194 215 l 1
 194 295 l 1
 345 446 l 1
 366 425 l 1
 367 424 l 0
 378 415 392 406 405 406 c 0
 418 406 430 413 442 423 c 2
 465 446 l 1xfb
-125 -246 m 1
 -146 -225 l 1
 -146 -225 -136 -209 -122 -195 c 2
 -52 -124 l 2
 -51 -123 l 0
 -40 -112 -28 -104 -15 -104 c 0
 -2 -104 7 -110 15 -118 c 2
 36 -139 l 2
 37 -140 l 0
 39 -142 42 -145 44 -147 c 0
 47 -149 51 -151 54 -152 c 2
 54 545 l 1
 205 696 l 1
 226 675 l 1
 227 674 l 0
 238 664 252 656 265 656 c 0
 280 656 297 668 308 678 c 2
 325 696 l 2
 326 696 l 2
 347 675 l 1
 345 672 l 2
 343 670 341 668 338 665 c 2
 337 664 l 2
 266 594 l 2
 254 582 234 564 215 564 c 0
 197 564 179 580 167 592 c 0
 155 604 l 1
 146 595 l 1
 146 -125 l 1
 146 -125 136 -141 122 -155 c 2
 52 -226 l 2
 41 -237 28 -246 15 -246 c 0
 2 -246 -7 -240 -15 -232 c 2
 -36 -211 l 2
 -39 -208 -42 -206 -44 -203 c 0
 -50 -199 -57 -196 -65 -196 c 0
 -69 -196 -73 -197 -78 -199 c 2
 -125 -246 l 1
EndSplineSet
LCarets2: 1 240 
Ligature2: "Ligatures-1" longs s
EndChar
StartChar: longs_longs_t
Encoding: 62719 62719 712
Width: 580
Flags: W
HStem: -196 92<-67 -8.5> -46 21G<415 455>
VStem: 54 92<-123.974 545> 214 92<-150.779 551.891> 374 92<65 354 446 514>
CounterMasks: 1 38
LayerCount: 2
Back
SplineSet
540 80 m 1
 460 0 l 1
 420 40 l 1
 420 550 l 1
 385 550 340 650 340 650 c 1
 260 570 l 1
 260 -150 l 1
 260 -150 222 -200 200 -200 c 0
 174 -200 125 -150 100 -150 c 1025
360 400 m 25
 520 400 l 1049
-100 -200 m 17
 -100 -200 -70 -150 -40 -150 c 8
 -3 -150 3 -200 40 -200 c 24
 70 -200 100 -150 100 -150 c 1
 100 570 l 1
 180 650 l 1
 180 650 225 570 260 570 c 1025
EndSplineSet
Fore
SplineSet
-125 -246 m 1
 -146 -225 l 1
 -146 -225 -136 -209 -122 -195 c 2
 -52 -124 l 2
 -51 -123 l 0
 -40 -112 -28 -104 -15 -104 c 0
 -2 -104 7 -110 15 -118 c 2
 36 -139 l 2
 37 -140 l 0
 39 -142 42 -145 44 -147 c 0
 47 -149 51 -151 54 -152 c 2
 54 545 l 1
 205 696 l 1
 226 675 l 1
 226 675 241 649 259 627 c 0
 268 620 277 616 285 616 c 1
 365 696 l 1
 386 675 l 1
 386 675 406 631 429 602 c 0
 434 598 440 596 445 596 c 2
 466 575 l 1
 466 446 l 1
 545 446 l 1
 566 425 l 1
 495 354 l 1
 466 354 l 1
 466 65 l 1
 485 46 l 1
 565 126 l 1
 586 105 l 1
 435 -46 l 1
 374 15 l 1
 374 354 l 1
 335 354 l 1
 314 375 l 1
 374 435 l 1
 374 514 l 2
 372 516 371 517 369 519 c 2
 348 540 l 2
 347 540 l 0
 332 555 318 579 308 597 c 1
 306 595 l 1
 306 -125 l 1
 306 -125 296 -139 283 -152 c 2
 212 -223 l 2
 200 -235 186 -246 175 -246 c 0
 151 -246 107 -203 81 -197 c 1
 52 -226 l 2
 41 -237 28 -246 15 -246 c 0
 2 -246 -7 -240 -15 -232 c 2
 -36 -211 l 2
 -39 -208 -42 -206 -44 -203 c 0
 -50 -199 -57 -196 -65 -196 c 0
 -69 -196 -73 -197 -78 -199 c 2
 -125 -246 l 1
214 532 m 1
 209 535 204 540 199 545 c 2
 178 566 l 2
 168 576 159 588 151 599 c 1
 146 595 l 1
 146 -111 l 1
 167 -122 194 -145 214 -152 c 1
 214 532 l 1
EndSplineSet
LCarets2: 2 240 400 
Ligature2: "Ligatures-1" longs longs t
EndChar
StartChar: longs_t
Encoding: 64261 64261 333
Width: 420
Flags: W
HStem: -196 92<-67 -8.5> -46 21G<255 295>
VStem: 54 92<-151.691 545> 214 92<46.2344 354 446 535.734>
LayerCount: 2
Back
SplineSet
-100 -200 m 17
 -100 -200 -70 -150 -40 -150 c 8
 -3 -150 3 -200 40 -200 c 24
 70 -200 100 -150 100 -150 c 1
 100 570 l 1
 180 650 l 1
 180 650 225 550 260 550 c 1
 260 40 l 1
 300 0 l 1
 380 80 l 1025
200 400 m 25
 360 400 l 1049
EndSplineSet
Fore
SplineSet
-125 -246 m 1
 -146 -225 l 1
 -146 -225 -136 -209 -122 -195 c 2
 -52 -124 l 2
 -51 -123 l 0
 -40 -112 -28 -104 -15 -104 c 0
 -2 -104 7 -110 15 -118 c 2
 36 -139 l 2
 37 -140 l 0
 39 -142 42 -145 44 -147 c 0
 47 -149 51 -151 54 -152 c 2
 54 545 l 1
 205 696 l 1
 226 675 l 1
 226 675 246 631 269 602 c 0
 275 598 280 596 285 596 c 2
 306 575 l 1
 306 446 l 1
 385 446 l 1
 406 425 l 1
 335 354 l 1
 306 354 l 1
 306 65 l 2
 306 56 320 51 325 46 c 1
 405 126 l 1
 426 105 l 1
 275 -46 l 1
 214 15 l 1
 214 354 l 1
 175 354 l 1
 154 375 l 1
 214 435 l 1
 214 514 l 2
 212 515 211 517 209 519 c 2
 188 540 l 2
 173 555 158 578 148 597 c 1
 146 595 l 1
 146 -125 l 1
 146 -125 136 -141 122 -155 c 2
 52 -226 l 2
 41 -237 28 -246 15 -246 c 0
 2 -246 -7 -240 -15 -232 c 2
 -36 -211 l 2
 -39 -208 -42 -206 -44 -203 c 0
 -50 -199 -57 -196 -65 -196 c 0
 -69 -196 -73 -197 -78 -199 c 2
 -125 -246 l 1
EndSplineSet
LCarets2: 1 240 
Ligature2: "Ligatures-1" longs t
EndChar
StartChar: s_t
Encoding: 64262 64262 334
Width: 560
Flags: W
HStem: -46 21G<-5 35 115 155 395 435> -6 92<68.5 134> 304 93<239.996 354> 426 20G<165 253.98 505 545> 446 130G<165 253.98 405 445 505 545>
VStem: 354 92<75 305 402 525>
LayerCount: 2
Back
SplineSet
40 0 m 1
 40 0 72 40 100 40 c 24
 128 40 160 0 160 0 c 9
 240 80 l 1
 240 160 l 1
 80 240 l 1
 80 320 l 1
 160 400 l 17
 160 400 220 350 360 350 c 3
 473 350 500 400 500 400 c 1033
400 550 m 1
 400 50 l 1
 440 0 l 1
 520 100 l 1025
EndSplineSet
Fore
SplineSet
425 596 m 1xf4
 446 575 l 1
 446 402 l 1
 474 408 493 417 505 426 c 2
 525 446 l 1
 546 425 l 2
 546 425 544 421 538 415 c 2
 467 344 l 2
 462 339 456 334 446 328 c 1
 446 75 l 1
 460 57 l 1
 474 75 l 1
 545 146 l 1
 566 125 l 1
 486 25 l 1
 415 -46 l 1
 394 -25 l 1
 354 25 l 1
 354 305 l 1
 348 305 342 304 335 304 c 0
 195 304 135 354 135 354 c 1
 126 345 l 1
 126 275 l 1
 265 206 l 1
 286 185 l 1
 286 105 l 1
 135 -46 l 1
 114 -25 l 1
 113 -24 l 0
 102 -15 88 -6 75 -6 c 0
 62 -6 50 -13 38 -23 c 2
 15 -46 l 1
 -6 -25 l 1
 -6 -25 -2 -20 5 -13 c 2
 76 58 l 2
 88 70 107 86 125 86 c 0
 143 86 162 70 174 58 c 2
 185 46 l 1
 194 55 l 1
 194 125 l 1
 55 194 l 1
 34 215 l 1
 34 295 l 1
 185 446 l 1
 185 446 236 404 354 397 c 1
 354 525 l 1
 425 596 l 1xf4
EndSplineSet
LCarets2: 1 320 
Ligature2: "Ligatures-1" s t
EndChar
StartChar: v.alt
Encoding: 65540 -1 782
Width: 320
Flags: W
HStem: -46 21G<115 155> 426 20G<65 105 205 245> 426 20G<65 105 205 245>
VStem: 34 92<105 355> 194 92<105 335>
AnchorPoint: "abvmark" 160 500 basechar 0
AnchorPoint: "blwmark" 160 0 basechar 0
LayerCount: 2
Back
SplineSet
200 400 m 1
 240 360 l 25
 240 80 l 1
 160 0 l 25
 80 80 l 1
 80 380 l 1049
100 360 m 25
 60 400 l 1049
EndSplineSet
Fore
SplineSet
154 375 m 1xd8
 225 446 l 1
 286 385 l 1
 286 105 l 1
 135 -46 l 1
 34 55 l 1
 34 355 l 1
 14 375 l 1
 85 446 l 1
 105 426 l 1
 126 405 l 1
 146 385 l 1
 126 365 l 1
 126 105 l 1
 185 46 l 1
 194 55 l 1
 194 335 l 1
 154 375 l 1xd8
EndSplineSet
EndChar
